<?xml version="1.0" encoding="UTF-8"?>
<svg width="120px" height="100px" viewBox="0 0 120 100" version="1.1" xmlns="http://www.w3.org/2000/svg" xmlns:xlink="http://www.w3.org/1999/xlink">
    <title>失败异常类-插图-小</title>
    <defs>
        <linearGradient x1="51.9445544%" y1="48.7482018%" x2="52.5880775%" y2="51.2000333%" id="linearGradient-1">
            <stop stop-color="#282829" offset="0%"></stop>
            <stop stop-color="#434343" offset="100%"></stop>
        </linearGradient>
        <linearGradient x1="50.0012121%" y1="2.22166716%" x2="50.0012121%" y2="92.4206804%" id="linearGradient-2">
            <stop stop-color="#333333" offset="0%"></stop>
            <stop stop-color="#5A5A5A" offset="100%"></stop>
        </linearGradient>
        <linearGradient x1="50.0012121%" y1="0.01153409%" x2="50.0012121%" y2="99.2215341%" id="linearGradient-3">
            <stop stop-color="#5E5E5E" offset="0%"></stop>
            <stop stop-color="#757575" offset="100%"></stop>
        </linearGradient>
        <linearGradient x1="50.0012121%" y1="0.01153409%" x2="50.0012121%" y2="99.2215341%" id="linearGradient-4">
            <stop stop-color="#414040" offset="0%"></stop>
            <stop stop-color="#565656" offset="100%"></stop>
        </linearGradient>
        <linearGradient x1="35.3305548%" y1="21.0212472%" x2="70.2604474%" y2="65.6172257%" id="linearGradient-5">
            <stop stop-color="#5A5A5A" offset="0%"></stop>
            <stop stop-color="#333333" offset="100%"></stop>
        </linearGradient>
        <linearGradient x1="50.0012121%" y1="2.22166716%" x2="50.0012121%" y2="92.4206804%" id="linearGradient-6">
            <stop stop-color="#333333" offset="0%"></stop>
            <stop stop-color="#5A5A5A" offset="100%"></stop>
        </linearGradient>
    </defs>
    <g id="服务账单" stroke="none" stroke-width="1" fill="none" fill-rule="evenodd">
        <g id="编组-2" transform="translate(20, 13)">
            <path d="M13.6533854,59.6091836 C22.6213872,57.5680531 35.540879,56.6608841 44.3180722,57.1144686 C53.0952654,57.5680531 60.3481907,59.1072725 60.8768578,58.7505128 C62.6290945,57.5680531 66.3675526,57.0584446 66.1767441,57.5120291 C65.9859355,57.9656136 63.5897356,59.3823913 64.3529697,59.6091836 C65.1162039,59.8359758 72.9393544,60.7431449 76.1830997,61.4235217 C79.4268451,62.1038985 81.5054047,62.7842754 82.2217452,62.7842754 C82.9380857,62.7842754 84.0355615,61.8280445 88.7303228,62.2816291 C88.8132999,62.4551988 87.6910518,62.5180691 86.6377436,63.0488851 C85.5844355,63.5797012 84.844963,63.5432066 84.844963,63.6757057 C84.844963,63.8082048 85.4272512,63.499561 86.6377436,64.2836039 C87.8482361,65.0676468 90,65.3182147 90,65.5287179 C90,65.7392211 87.2742565,66.6328286 82.7090865,65.1812613 C81.5535374,64.8138364 78.8544194,68.0004976 66.4518638,68.9076666 C54.0493081,69.8148357 33.0603679,70.4952125 33.0603679,70.4952125 C33.0603679,70.4952125 34.326572,72.1208674 36.1619008,72.592614 C36.2646799,72.7589453 35.4338941,73.363977 31.8636211,72.6850051 C28.2933482,72.0060331 26.3820687,70.4952125 26.3820687,70.4952125 C26.3820687,70.4952125 19.3221524,70.041628 16.6508327,69.5880435 C13.979513,69.1344589 10.9265763,68.0004976 8.82768224,67.7737053 C6.72878821,67.546913 -2.8116392,66.4129517 0.813723215,63.9182367 C0.813723215,63.9182367 4.68538368,61.650314 13.6533854,59.6091836 Z" id="Fill-1" fill="url(#linearGradient-1)" fill-rule="nonzero"></path>
            <path d="M11,61 L11,66 L16,66 L16,67 L10,67 L10,61 L11,61 Z" id="形状结合" fill="#5D5E5E" fill-rule="nonzero"></path>
            <path d="M10,0 L10,5 L15,5 L15,6 L9,6 L9,0 L10,0 Z" id="形状结合备份" fill="#5D5E5E" fill-rule="nonzero" transform="translate(12, 3) rotate(-270) translate(-12, -3)"></path>
            <path d="M58,0 L58,5 L63,5 L63,6 L57,6 L57,0 L58,0 Z" id="形状结合备份-2" fill="#5D5E5E" fill-rule="nonzero" transform="translate(60, 3) rotate(-180) translate(-60, -3)"></path>
            <rect id="矩形-2" fill="url(#linearGradient-2)" fill-rule="nonzero" x="13" y="4" width="46" height="58" rx="1"></rect>
            <rect id="矩形" fill="url(#linearGradient-3)" fill-rule="nonzero" x="17" y="8" width="38" height="50"></rect>
            <rect id="矩形" fill="#4B4949" fill-rule="nonzero" x="25" y="10" width="22" height="1"></rect>
            <rect id="矩形" fill="#4B4949" fill-rule="nonzero" x="17" y="58" width="38" height="1"></rect>
            <rect id="矩形-3" fill="url(#linearGradient-4)" fill-rule="nonzero" x="25" y="2" width="22" height="8"></rect>
            <path d="M59,38.528 L59,61 C59,61.5522847 58.5522847,62 58,62 L45.701,61.999 L59,38.528 Z" id="形状结合" fill="#2B2B2B" fill-rule="nonzero"></path>
            <path d="M55,45.559 L55,58 L47.951,58 L55,45.559 Z" id="形状结合" fill="url(#linearGradient-5)" fill-rule="nonzero"></path>
            <path d="M62.3700222,37.5353333 L63.1503003,38.9122947 L63.1503003,38.9122947 L77.6539595,64.5069874 C77.9262429,64.9874874 77.7574499,65.5977389 77.2769499,65.8700222 C77.1266035,65.9552185 76.956745,66 76.7839374,66 L46.2160626,66 C45.6637779,66 45.2160626,65.5522847 45.2160626,65 C45.2160626,64.8271924 45.2608441,64.6573339 45.3460405,64.5069874 L60.6299778,37.5353333 C60.9022611,37.0548333 61.5125126,36.8860403 61.9930126,37.1583237 C62.1504858,37.2475585 62.2807873,37.37786 62.3700222,37.5353333 Z" id="三角形" fill="url(#linearGradient-6)" fill-rule="nonzero"></path>
            <path d="M63.1015625,49.8984375 L62.7890625,58.2734375 L60.7421875,58.2734375 L60.4453125,49.8984375 L63.1015625,49.8984375 Z M60.3046875,60.84375 C60.3046875,60.453123 60.4479152,60.1328137 60.734375,59.8828125 C61.0208348,59.6328113 61.3723938,59.5078125 61.7890625,59.5078125 C62.2109396,59.5078125 62.5611965,59.6341133 62.8398438,59.8867188 C63.118491,60.1393242 63.2578125,60.4583314 63.2578125,60.84375 C63.2578125,61.2187519 63.1223972,61.536457 62.8515625,61.796875 C62.5807278,62.057293 62.2552102,62.1875 61.875,62.1875 C61.3958309,62.1875 61.0143243,62.057293 60.7304688,61.796875 C60.4466132,61.536457 60.3046875,61.2187519 60.3046875,60.84375 Z" id="!" fill="#716F6F" fill-rule="nonzero"></path>
            <g id="编组-3" transform="translate(32, 23)" fill="#5D5E5E">
                <rect id="矩形" x="0" y="0" width="2" height="1"></rect>
                <rect id="矩形备份" x="4" y="0" width="2" height="1"></rect>
                <rect id="矩形备份-2" x="8" y="0" width="2" height="1"></rect>
                <rect id="矩形备份-3" x="12" y="0" width="2" height="1"></rect>
                <rect id="矩形备份-4" x="16" y="0" width="2" height="1"></rect>
            </g>
            <g id="编组-3" transform="translate(44, 31)" fill="#5D5E5E">
                <rect id="矩形" x="4" y="0" width="2" height="1"></rect>
                <rect id="矩形备份-5" x="0" y="0" width="2" height="1"></rect>
                <rect id="矩形备份" x="8" y="0" width="2" height="1"></rect>
                <rect id="矩形备份-2" x="12" y="0" width="2" height="1"></rect>
                <rect id="矩形备份-3" x="16" y="0" width="2" height="1"></rect>
                <rect id="矩形备份-4" x="20" y="0" width="2" height="1"></rect>
            </g>
        </g>
    </g>
</svg>