<svg viewBox="0 0 1024 1024" version="1.1" xmlns="http://www.w3.org/2000/svg"><g fill="none" fill-rule="evenodd"><path fill="#FFF" fill-rule="nonzero" d="M509.0051008 80.07608016C501.3755648 80.48031184 493.9030736 82.40743232 487.0251056 85.7446184L186.6197296 230.8811136C170.8714064 238.489008 159.43301696 252.8766912 155.54205952 269.9718992L81.45056752 596.0597424C77.98287424 611.2456976 80.79219408 627.1931584 89.238144 640.266912 90.2551112 641.8408672 91.34807488 643.3640688 92.51313184 644.83108L300.4132992 906.3196848C311.3148064 920.0236848 327.8424816 928 345.3194304 928L678.731208 927.926232C696.2019808 927.9382896 712.7285696 919.9729312 723.637376 906.282704L931.4647424 644.757264C942.3613984 631.0519056 946.4463568 613.115544 942.5639168 596.0226624L868.3634288 269.8982816C864.462424 252.816872 853.025424 238.4444704 837.2857888 230.844304L536.8804096 85.70780896C528.2059744 81.51651408 518.6205072 79.5799344 509.0051008 80.07608016Z"/><path fill="#FFB848" d="M509.1578624 102.44348272C518.2590512 101.97800992 527.3310112 103.81323808 535.5411504 107.78073632L820.1165632 245.2242256C835.0349504 252.4306288 845.8706688 266.0597008 849.5566656 282.2537264L919.863496 591.1520704C923.5500688 607.353592 919.6788992 624.3575072 909.3466144 637.3469456L712.4727744 885.0687408C702.138712 898.0378688 686.4824736 905.5833552 669.9320256 905.5711536L354.0969408 905.6449216C337.5403024 905.6449216 321.8829552 898.0886352 311.5561824 885.1057232L114.60962368 637.42032C113.50858384 636.0240048 112.4762992 634.5744848 111.51647168 633.0769584 103.51894992 620.7006608 100.8542408 605.6043024 104.12912816 591.2254928L174.326856 282.327344C178.0128464 266.1333232 188.8485552 252.5042496 203.7669344 245.29784L488.3059824 107.78073632C494.8331008 104.62672576 501.9223584 102.81215728 509.1578624 102.44348272ZM320 397.7293264L320 603.9667376 498.8905392 704 499.77608 451.704976 320 397.7293264ZM704 397.7293264L524.223936 451.704976 525.1094768 704 704 603.9667376 704 397.7293264ZM512.0002656 320L320 376.2059568 512.0002656 432.4120208 704 376.2059568 512.0002656 320Z"/></g></svg>