<svg viewBox="0 0 64 64" version="1.1" xmlns="http://www.w3.org/2000/svg" style="fill: #c4c6cc;"><path d="M60,32A28,28,0,1,0,25.87,59.32c-.05-.81.13-2.17.13-3.25,0-1.32,0-4.71,0-4.71a16.21,16.21,0,0,1-2.51.17A5.41,5.41,0,0,1,18,47.83a6.39,6.39,0,0,0-2.68-3.19c-.61-.4-.75-.87,0-1,3.29-.62,4.14,3.73,6.35,4.43a6.17,6.17,0,0,0,4.59-.37,4.86,4.86,0,0,1,1.89-3.09c-5.6-.55-8.92-2.5-10.63-5.62l-.18-.35a8.41,8.41,0,0,1-.43-1l-.13-.36A16.69,16.69,0,0,1,16,31.9c0-3.6,1.12-5,2.63-6.88A9.68,9.68,0,0,1,19,18.11s2.42-.49,7,2.78c2.48-1.06,9.09-1.16,12.21-.24,1.93-1.27,5.44-3.07,6.85-2.56.38.61,1.21,2.42.48,6.35.51.86,3,2.72,3,8A21,21,0,0,1,48,37.32l-.1.36c-.11.34-.23.67-.36,1l-.15.35c-1.66,3.65-5.06,5-10.56,5.57,1.78,1.13,2.29,2.54,2.29,6.36s-.06,4.32,0,5.2a13.36,13.36,0,0,1,0,3A28,28,0,0,0,60,32Z"></path></svg>