<?xml version="1.0" encoding="utf-8"?>
<!-- Generator: Adobe Illustrator 25.0.0, SVG Export Plug-In . SVG Version: 6.00 Build 0)  -->
<svg version="1.1" id="图层_1" xmlns="http://www.w3.org/2000/svg" xmlns:xlink="http://www.w3.org/1999/xlink" x="0px" y="0px"
	 viewBox="0 0 28 28" style="enable-background:new 0 0 28 28;" xml:space="preserve">
<style type="text/css">
	.st0{fill:none;}
	.st1{fill-rule:evenodd;clip-rule:evenodd;fill:#3A84FF;}
	.st2{fill-rule:evenodd;clip-rule:evenodd;fill:#FFFFFF;}
</style>
<path id="Clip-2" class="st0" d="M13.6,0c-0.5,0-1.1,0.2-1.5,0.6l0,0L0.6,12.1c-0.8,0.8-0.8,2.2,0,3l0,0l1.7,1.7L0,22.8
	c-0.2,0.6,0.4,1.1,0.9,0.8l0,0l4.9-3.2l6.2,6.2c0.8,0.8,2.2,0.8,3,0l0,0l7.7-7.7c-1.6-1.2-2.6-3.2-2.6-5.3l0,0c0-2.1,1-4.1,2.6-5.3
	l0,0l-7.7-7.7C14.7,0.2,14.1,0,13.6,0L13.6,0L13.6,0z"/>
<path id="Fill-1" class="st1" d="M13.6,0c-0.5,0-1.1,0.2-1.5,0.6l0,0L0.6,12.1c-0.8,0.8-0.8,2.2,0,3l0,0l1.7,1.7L0,22.8
	c-0.2,0.6,0.4,1.1,0.9,0.8l0,0l4.9-3.2l6.2,6.2c0.8,0.8,2.2,0.8,3,0l0,0l7.7-7.7c-1.6-1.2-2.6-3.2-2.6-5.3l0,0c0-2.1,1-4.1,2.6-5.3
	l0,0l-7.7-7.7C14.7,0.2,14.1,0,13.6,0L13.6,0L13.6,0z"/>
<path id="Fill-3" class="st2" d="M22.7,13.6c0,1.1,0.4,2.2,1.2,3c0.2,0.2,0.4,0.4,0.6,0.5l2-2c0.8-0.8,0.8-2.2,0-3l-2-2
	c-0.2,0.1-0.4,0.3-0.6,0.5C23.1,11.4,22.7,12.5,22.7,13.6"/>
<path id="Fill-9" class="st2" d="M13.5,14.9c0.7,0,1.3-0.6,1.3-1.3c0-0.7-0.6-1.3-1.3-1.3H6l-1.3,2.6H13.5z"/>
<path id="Fill-11" class="st2" d="M13.6,16.6H3.9l-3,6l4.6-3.5h8.1c3.1,0,5.5-2.5,5.5-5.5c0-3.1-2.5-5.5-5.5-5.5H8.1l-1.3,2.6h6.8
	c1.6,0,3,1.3,3,3C16.6,15.3,15.2,16.6,13.6,16.6"/>
</svg>
