<svg id="图层_1" data-name="图层 1" xmlns="http://www.w3.org/2000/svg" xmlns:xlink="http://www.w3.org/1999/xlink" viewBox="0 0 240 240"><defs><style>.cls-1{fill:none;}.cls-2{clip-path:url(#clip-path);}.cls-3{fill:#98b6d0;}.cls-3,.cls-4{fill-rule:evenodd;}.cls-4{fill:#bbd3e8;}</style><clipPath id="clip-path"><rect class="cls-1" width="240" height="240"/></clipPath></defs><title>画板 1</title><g class="cls-2"><path class="cls-3" d="M141.66,164.71a11.88,11.88,0,0,0-10.46,1.72l5.24-16a12,12,0,0,0-7.62-15.08l-16-5.24a11.88,11.88,0,0,0,7.58-7.4c2.16-6.58-2.22-13.93-9.79-16.42s-15.46.84-17.62,7.42a11.88,11.88,0,0,0,1.72,10.46L75.82,118a12,12,0,0,0-15.08,7.62l-5.83,17.74c.26-.15.52-.31.79-.44a12,12,0,0,1,9.18-.76c6.74,2.21,10.2,10.14,7.71,17.71s-10,11.91-16.71,9.7a12.16,12.16,0,0,1-7.32-6.86l-4.64,14.13a12,12,0,0,0,7.62,15.08l53,17.4a12,12,0,0,0,15.08-7.62l5.63-17.14a11.88,11.88,0,0,0,7.4,7.58c6.58,2.16,13.94-2.22,16.42-9.79s-.84-15.46-7.42-17.62"/><path class="cls-4" d="M176.45,81.88a15.88,15.88,0,0,0,14-2.21c7.45-5.51,8.35-16.91,2-25.47s-17.5-11-24.95-5.54a15.89,15.89,0,0,0-6.22,12.73L148,43.34A16,16,0,0,0,125.63,40L107.58,53.33a15.88,15.88,0,0,0-2.21-14c-5.51-7.45-16.91-8.36-25.47-2s-11,17.5-5.54,24.95a15.88,15.88,0,0,0,12.73,6.22L65.68,84.3a16,16,0,0,0-3.35,22.33l3.44,4.66a15.35,15.35,0,0,1,8.72.19l12.62,4a16.16,16.16,0,0,1,.69-3.8c3-9.5,14-14.52,24.65-11.22s16.91,13.68,14,23.17a16.16,16.16,0,0,1-1.81,3.86l8.61,2.76a15.54,15.54,0,0,1,10,19.48l-2.73,8.52,46.95-34.7a16,16,0,0,0,3.35-22.33Z"/></g></svg>