<svg viewBox="0 0 1024 1024" version="1.1" xmlns="http://www.w3.org/2000/svg"><path fill="#fff3e1" d="M967.4361904761904 512.3250793650793A455.1111111111111 455.1111111111111 0 0 1 512.3250793650793 967.4361904761904 455.1111111111111 455.1111111111111 0 0 1 57.21396825396825 512.3250793650793 455.1111111111111 455.1111111111111 0 0 1 967.4361904761904 512.3250793650793z"/><path fill="#ff9c01" fill-rule="evenodd" d="M512.3250793650793 0C229.5060317460317 0 0 229.5060317460317 0 512.3250793650793s229.5060317460317 512.3250793650793 512.3250793650793 512.3250793650793 512.3250793650793-229.5060317460317 512.3250793650793-512.3250793650793S794.4939682539682 0 512.3250793650793 0m0 72.81777777777778c241.85904761904763 0 438.85714285714283 196.9980952380952 438.85714285714283 438.85714285714283s-196.9980952380952 438.85714285714283-438.85714285714283 438.85714285714283S72.81777777777778 754.1841269841269 72.81777777777778 512.3250793650793 269.815873015873 72.81777777777778 512.3250793650793 72.81777777777778m-256.16253968253966 475.2660317460317h512.3250793650793v-72.81777777777778H256.16253968253966v72.81777777777778Z"/></svg>