<?xml version="1.0" encoding="UTF-8"?>
<!DOCTYPE svg PUBLIC "-//W3C//DTD SVG 1.1//EN" "http://www.w3.org/Graphics/SVG/1.1/DTD/svg11.dtd">
<!-- Creator: CorelDRAW X7 -->
<svg xmlns="http://www.w3.org/2000/svg" xml:space="preserve" width="51.0804mm" height="49.8585mm" version="1.1" style="shape-rendering:geometricPrecision; text-rendering:geometricPrecision; image-rendering:optimizeQuality; fill-rule:evenodd; clip-rule:evenodd"
viewBox="0 0 236 230"
 xmlns:xlink="http://www.w3.org/1999/xlink">
 <defs>
  <style type="text/css">
   <![CDATA[
    .fil0 {fill:#DCE6FF;fill-rule:nonzero}
   ]]>
  </style>
 </defs>
 <g id="图层_x0020_1">
  <metadata id="CorelCorpID_0Corel-Layer"/>
  <g>
   <path class="fil0" d="M165 91c0,-3 2,-5 5,-5 2,0 4,2 4,5l0 10 16 0 18 0c2,0 4,2 4,5 0,2 -2,4 -4,4l-14 0 0 10 0 0c0,1 0,2 -1,3l-18 22 25 25c2,2 2,5 0,6 -2,2 -4,2 -6,1l-25 -25 -8 10 6 17 1 5c0,0 0,1 0,1 0,1 0,2 -1,3l-27 33 66 0c6,0 11,-2 15,-6l0 0c3,-4 6,-9 6,-15l0 -130c0,-6 -3,-11 -6,-15 -4,-4 -9,-6 -15,-6l-82 0 12 37 5 15 24 0 0 -10zm-135 -91l75 0c2,0 4,1 5,3l12 37 84 0c8,0 15,4 21,9l0 0c5,6 9,13 9,21l0 130c0,8 -4,16 -9,21l0 0 0 0 0 0c-6,6 -13,9 -21,9l-76 0c-2,0 -4,-2 -4,-3l-12 -37 -84 0c-8,0 -16,-4 -21,-9l0 0c-6,-6 -9,-13 -9,-21l0 -130c0,-8 3,-16 9,-21l0 0 0 0 0 0c5,-6 13,-9 21,-9zm72 9l-72 0c-6,0 -11,2 -15,6l0 0c-4,4 -6,9 -6,15l0 130c0,6 2,11 6,15 4,3 9,6 15,6l87 0 41 0 -5 -17c-1,-1 -2,-2 -1,-3l-6 -16 -11 -36c-1,-1 -2,-2 -2,-3 0,-1 0,-1 0,-1l-11 -34 -8 -25 0 0 -12 -37zm61 137l-10 -10 4 12 6 -2zm-16 -28l21 21 18 -20 0 -9 -16 0 -26 0 1 3 2 5zm8 72l-32 0 9 27 23 -27zm-59 -118c1,2 1,5 -1,6 -1,2 -4,2 -6,0 -2,-3 -5,-5 -9,-7 -3,-1 -7,-2 -11,-2 -8,0 -14,3 -19,8 -5,5 -8,11 -8,19 0,7 3,14 8,19 5,5 11,8 19,8 7,0 14,-3 19,-8 4,-4 7,-9 8,-15l-25 0c-3,0 -5,-2 -5,-4 0,-2 2,-4 5,-4l29 0c3,0 5,2 5,4 0,10 -4,19 -11,25 -6,7 -15,11 -25,11 -10,0 -19,-4 -26,-11 -6,-6 -10,-15 -10,-25 0,-10 4,-19 10,-25 7,-7 16,-11 26,-11 5,0 10,1 15,3 4,2 8,6 12,9z"/>
  </g>
 </g>
</svg>
