<svg viewBox="0 0 22 24" version="1.1" xmlns="http://www.w3.org/2000/svg" style="fill: #c4c6cc;"><path d="M14.31 12.915c2.111-1.214 3.51-3.458 3.51-6.027 0-3.827-3.103-6.93-6.93-6.93s-6.93 3.103-6.93 6.93c0 2.57 1.399 4.813 3.476 6.009-4.351 1.491-7.455 5.558-7.466 10.351 0 0.416 0.336 0.751 0.75 0.751s0.75-0.336 0.75-0.75c0-5.19 4.207-9.398 9.398-9.398s9.397 4.207 9.397 9.398c0 0.414 0.336 0.75 0.75 0.75s0.75-0.336 0.75-0.75c-0.004-4.784-3.089-8.847-7.378-10.312zM5.46 6.915c0.009-2.992 2.436-5.415 5.43-5.415 2.999 0 5.43 2.431 5.43 5.43s-2.431 5.43-5.43 5.43c-2.999 0-5.43-2.431-5.43-5.43z"></path></svg>