<?xml version="1.0" encoding="utf-8"?>
<!-- Generator: Adobe Illustrator 24.1.3, SVG Export Plug-In . SVG Version: 6.00 Build 0)  -->
<svg version="1.1" id="图层_1" xmlns="http://www.w3.org/2000/svg" xmlns:xlink="http://www.w3.org/1999/xlink" x="0px" y="0px"
	 viewBox="0 0 120 100" style="enable-background:new 0 0 120 100;" xml:space="preserve">
<style type="text/css">
	.st0{fill-rule:evenodd;clip-rule:evenodd;fill:url(#Fill-1_1_);}
	.st1{fill-rule:evenodd;clip-rule:evenodd;fill:url(#路径-3_1_);}
	.st2{fill-rule:evenodd;clip-rule:evenodd;fill:url(#形状结合_1_);}
	.st3{fill-rule:evenodd;clip-rule:evenodd;fill:#C4C6CC;}
	.st4{fill:#C4C6CC;}
</style>
<linearGradient id="Fill-1_1_" gradientUnits="userSpaceOnUse" x1="-1249.0129" y1="507.4109" x2="-1249.0067" y2="508.338" gradientTransform="matrix(102 0 0 18 127462 -9072)">
	<stop  offset="0" style="stop-color:#FBFCFD"/>
	<stop  offset="1" style="stop-color:#F0F2F5"/>
</linearGradient>
<path id="Fill-1" class="st0" d="M27.5,63.9c11.4-2.3,23.1-3.3,34.8-2.8c9.9,0.5,18.2,2.2,18.8,1.9c2-1.3,6.2-1.9,6-1.4
	s-2.9,2.1-2.1,2.4s9.7,1.3,13.4,2s6,1.5,6.8,1.5s2.1-1.1,7.4-0.6c0.1,0.2-1.2,0.3-2.4,0.9s-2,0.6-2,0.7c0.7,0.1,1.4,0.3,2,0.7
	c1.4,0.9,3.8,1.2,3.8,1.4s-3.1,1.2-8.3-0.4c-1.3-0.4-4.4,3.2-18.4,4.2s-37.8,1.8-37.8,1.8c0.9,1.1,2.1,1.9,3.5,2.4
	c0.1,0.2-0.8,0.9-4.9,0.1c-2.2-0.4-4.3-1.2-6.2-2.5c0,0-8-0.5-11-1s-6.5-1.8-8.9-2S8.9,71.7,13,68.8C12.9,68.8,17.3,66.2,27.5,63.9z
	"/>
<linearGradient id="路径-3_1_" gradientUnits="userSpaceOnUse" x1="-1242.197" y1="462.2602" x2="-1242.197" y2="463.1902" gradientTransform="matrix(66 0 0 35.2 82045 -16246.002)">
	<stop  offset="0" style="stop-color:#E6E8EB;stop-opacity:0.99"/>
	<stop  offset="1" style="stop-color:#D4D6D9"/>
</linearGradient>
<polygon id="路径-3" class="st1" points="27,47 41.7,25 78.3,25 93,47 93,60.2 27,60.2 "/>
<linearGradient id="形状结合_1_" gradientUnits="userSpaceOnUse" x1="-1242.197" y1="490.5864" x2="-1242.197" y2="491.5864" gradientTransform="matrix(66 0 0 22 82045 -10746)">
	<stop  offset="0" style="stop-color:#EDEFF2"/>
	<stop  offset="1" style="stop-color:#E8EAED"/>
</linearGradient>
<path id="形状结合" class="st2" d="M42.9,69H29c-1.1,0-2-0.9-2-2V47h13.9c1.1,0,2,0.9,2,2v3.2c0,1,0.8,1.9,1.8,2h30.4
	c1,0,1.9-0.8,2-1.8V49c0-1.1,0.9-2,2-2H93v20c0,1.1-0.9,2-2,2H42.9z"/>
<path id="形状结合-2" class="st3" d="M24,67v5h5v1h-6v-6H24z"/>
<path id="形状结合备份" class="st3" d="M91,72h5v-5h1v6h-6V72z"/>
<g id="编组-4">
	
		<rect id="矩形" x="70.5" y="17.3" transform="matrix(0.3584 -0.9336 0.9336 0.3584 29.2187 78.1384)" class="st4" width="2" height="1"/>
	
		<rect id="矩形备份-6" x="69" y="21.1" transform="matrix(0.3584 -0.9336 0.9336 0.3584 24.8061 79.2002)" class="st4" width="2" height="1"/>
	
		<rect id="矩形备份-7" x="67.6" y="24.8" transform="matrix(0.3584 -0.9336 0.9336 0.3584 20.4008 80.2611)" class="st4" width="2" height="1"/>
	
		<rect id="矩形备份-8" x="66.2" y="28.5" transform="matrix(0.3584 -0.9336 0.9336 0.3584 15.9929 81.3109)" class="st4" width="2" height="1"/>
</g>
<g id="编组-3">
	
		<rect id="矩形-2" x="29.8" y="25.2" transform="matrix(0.848 -0.5299 0.5299 0.848 -9.2957 20.023)" class="st4" width="1" height="2"/>
	
		<rect id="矩形备份-2" x="31.9" y="28.6" transform="matrix(0.848 -0.5299 0.5299 0.848 -10.7716 21.6587)" class="st4" width="1" height="2"/>
	
		<rect id="矩形备份-3" x="34" y="32" transform="matrix(0.848 -0.5299 0.5299 0.848 -12.246 23.2998)" class="st4" width="1" height="2"/>
	
		<rect id="矩形备份-4" x="36.1" y="35.4" transform="matrix(0.848 -0.5299 0.5299 0.848 -13.722 24.9355)" class="st4" width="1" height="2"/>
	
		<rect id="矩形备份-5" x="38.2" y="38.8" transform="matrix(0.848 -0.5299 0.5299 0.848 -15.1926 26.5697)" class="st4" width="1" height="2"/>
</g>
<circle id="椭圆形" class="st4" cx="78" cy="20" r="1"/>
<circle id="椭圆形备份" class="st4" cx="52" cy="36" r="1"/>
</svg>
