<?xml version="1.0" standalone="no"?>
  <!DOCTYPE svg PUBLIC "-//W3C//DTD SVG 1.1//EN" "http://www.w3.org/Graphics/SVG/1.1/DTD/svg11.dtd" >
  <svg>
  <metadata>
  Created by font-carrier
  </metadata>
  <defs>
  <font id="iconfont" horiz-adv-x="1024" vert-adv-y="1024" >
    <font-face
      
      font-family="iconfont"
      
      font-weight="400"
      
      font-stretch="normal"
      
      units-per-em="1024"
      
      ascent="812"
      
      descent="-212"
      
    />
      <missing-glyph />

      
      <glyph glyph-name="x" unicode="&#x78;" horiz-adv-x="100"
        d="M20 20 L50 20 L50 -20 Z" />
      

      
      <glyph glyph-name="uniE286" unicode="&#xE286;" d="M853.3333 684H597.3333C571.7333 684 554.6667 666.9333 554.6667 641.3333V385.3333C554.6667 359.7333 571.7333 342.6667 597.3333 342.6667H853.3333C878.9333 342.6667 896 359.7333 896 385.3333V641.3333C896 666.9333 878.9333 684 853.3333 684ZM827.7333 410.9333H618.6667V615.7333H827.7333V410.9333ZM853.3333 257.3333H597.3333C571.7333 257.3333 554.6667 240.2667 554.6667 214.6667V-41.3333C554.6667-66.9333 571.7333-84 597.3333-84H853.3333C878.9333-84 896-66.9333 896-41.3333V214.6667C896 240.2667 878.9333 257.3333 853.3333 257.3333ZM827.7333-15.7333H618.6667V193.3333H827.7333V-15.7333ZM426.6667 257.3333H170.6667C145.0667 257.3333 128 240.2667 128 214.6667V-41.3333C128-66.9333 145.0667-84 170.6667-84H426.6667C452.2667-84 469.3333-66.9333 469.3333-41.3333V214.6667C469.3333 240.2667 452.2667 257.3333 426.6667 257.3333ZM405.3333-15.7333H196.2667V193.3333H405.3333V-15.7333ZM426.6667 684H170.6667C145.0667 684 128 666.9333 128 641.3333V385.3333C128 359.7333 145.0667 342.6667 170.6667 342.6667H426.6667C452.2667 342.6667 469.3333 359.7333 469.3333 385.3333V641.3333C469.3333 666.9333 452.2667 684 426.6667 684ZM405.3333 406.6667H196.2667V615.7333H405.3333V406.6667Z"  horiz-adv-x="1024" vert-adv-y="1024"  />

      
      <glyph glyph-name="uniE21F" unicode="&#xE21F;" d="M761.6 216.8C668.8 216.8 595.2 141.6 595.2 50.4S670.4-116 761.6-116 928-42.4 928 50.4L928 50.4C928 141.6 852.8 216.8 761.6 216.8ZM761.6-53.6C704-53.6 659.2-7.2 659.2 48.8S705.6 151.2 761.6 151.2 864 104.8 864 48.8C864-7.2 817.6-53.6 761.6-53.6ZM387.2 714.4H128C110.4 714.4 96 700 96 682.4V423.2C96 405.6 110.4 391.2 128 391.2H387.2C404.8 391.2 419.2 405.6 419.2 423.2V682.4C419.2 700 404.8 714.4 387.2 714.4ZM355.2 455.2H160V650.4H355.2L355.2 455.2ZM324.8 154.4L404.8 74.4H224V298.4H160V44C160 26.4 174.4 12 192 12H408L328-68 372.8-112.8 528 42.4 369.6 200.8 324.8 154.4ZM686.4 440.8L606.4 520.8H787.2V298.4H851.2V552.8C851.2 570.4 836.8 584.8 819.2 584.8H603.2L683.2 664.8 638.4 709.6 483.2 554.4 641.6 396 686.4 440.8Z"  horiz-adv-x="1024" vert-adv-y="1024"  />

      
      <glyph glyph-name="uniE220" unicode="&#xE220;" d="M561.6 101.6L448-13.6C419.2-42.4 382.4-61.6 342.4-68 284.8-76 228.8-55.2 190.4-12 128 61.6 131.2 168.8 200 236L313.6 349.6C326.4 362.4 326.4 381.6 313.6 394.4L313.6 394.4C300.8 407.2 281.6 407.2 268.8 394.4 268.8 394.4 268.8 394.4 268.8 394.4L150.4 277.6C56 183.2 56 31.2 150.4-61.6L150.4-61.6C244.8-156 396.8-156 489.6-61.6 489.6-61.6 489.6-61.6 489.6-61.6L608 55.2C620.8 68 620.8 87.2 608 100 608 100 608 100 608 100L608 100C595.2 114.4 576 114.4 561.6 101.6 563.2 101.6 561.6 101.6 561.6 101.6ZM692.8 480.8L692.8 480.8C705.6 468 705.6 448.8 692.8 436L376 119.2C363.2 106.4 344 106.4 331.2 119.2L331.2 119.2C318.4 132 318.4 151.2 331.2 164L648 480.8C660.8 493.6 680 493.6 692.8 480.8ZM462.4 498.4L576 612C604.8 642.4 643.2 660 683.2 666.4 779.2 677.6 867.2 608.8 878.4 512.8 880 493.6 880 476 876.8 456.8 868.8 421.6 851.2 388 825.6 362.4L710.4 247.2C697.6 234.4 697.6 215.2 710.4 202.4 710.4 202.4 710.4 202.4 710.4 202.4L710.4 202.4C723.2 189.6 742.4 189.6 755.2 202.4 755.2 202.4 755.2 202.4 755.2 202.4L872 319.2C966.4 413.6 966.4 565.6 872 658.4 872 658.4 872 658.4 872 658.4L872 658.4C777.6 752.8 625.6 752.8 532.8 658.4L416 541.6C403.2 528.8 403.2 509.6 416 496.8 416 496.8 416 496.8 416 496.8L416 496.8C428.8 485.6 449.6 485.6 462.4 498.4 462.4 498.4 462.4 498.4 462.4 498.4Z"  horiz-adv-x="1024" vert-adv-y="1024"  />

      
      <glyph glyph-name="uniE26B" unicode="&#xE26B;" d="M512 748C264 748 64 548 64 300S264-148 512-148 960 52 960 300 760 748 512 748ZM512-84C299.2-84 128 87.2 128 300S299.2 684 512 684 896 512.8 896 300 724.8-84 512-84ZM512 92M464 92A48 48 0 1 1 560 92 48 48 0 1 1 464 92ZM512 556C484.8 556 464 535.2 464 508 464 506.4 464 504.8 464 503.2L480 204C480 186.4 494.4 172 512 172 529.6 172 544 186.4 544 204L560 503.2C560 504.8 560 506.4 560 508 560 535.2 539.2 556 512 556Z"  horiz-adv-x="1024" vert-adv-y="1024"  />

      
      <glyph glyph-name="uniE25F" unicode="&#xE25F;" d="M512 748C264 748 64 548 64 300S264-148 512-148 960 52 960 300 760 748 512 748ZM656 172C656 162.4 649.6 156 640 156H384C374.4 156 368 162.4 368 172V428C368 437.6 374.4 444 384 444H640C649.6 444 656 437.6 656 428V172Z"  horiz-adv-x="1024" vert-adv-y="1024"  />

      
      <glyph glyph-name="uniE219" unicode="&#xE219;" d="M512 748C264 748 64 548 64 300S264-148 512-148 960 52 960 300 760 748 512 748ZM512-84C299.2-84 128 87.2 128 300S299.2 684 512 684 896 512.8 896 300 724.8-84 512-84ZM494.4 408.8C465.6 402.4 438.4 388 417.6 367.2 393.6 344.8 419.2 322.4 433.6 340 443.2 352.8 457.6 362.4 473.6 368.8 484.8 370.4 491.2 367.2 492.8 359.2 494.4 344.8 492.8 332 488 317.6 483.2 298.4 473.6 266.4 462.4 223.2 440 146.4 428.8 98.4 432 82.4 435.2 64.8 444.8 50.4 460.8 40.8 478.4 32.8 499.2 31.2 518.4 36 548.8 42.4 576 58.4 598.4 80.8 624 106.4 595.2 124 580.8 109.6 571.2 96.8 556.8 87.2 540.8 84 526.4 80.8 518.4 87.2 515.2 100 513.6 114.4 516.8 128.8 521.6 141.6 561.6 277.6 579.2 354.4 574.4 373.6 571.2 388 561.6 400.8 548.8 407.2 532.8 413.6 512 413.6 494.4 408.8ZM560 508M512 508A48 48 0 1 1 608 508 48 48 0 1 1 512 508Z"  horiz-adv-x="1024" vert-adv-y="1024"  />

      
      <glyph glyph-name="uniE268" unicode="&#xE268;" d="M512 748C264 748 64 548 64 300S264-148 512-148 960 52 960 300 760 748 512 748ZM560 556C587.2 556 608 535.2 608 508S587.2 460 560 460 512 480.8 512 508 532.8 556 560 556ZM598.4 80.8C576 58.4 548.8 42.4 518.4 36 499.2 31.2 478.4 32.8 460.8 40.8 444.8 50.4 435.2 64.8 432 82.4 428.8 98.4 440 146.4 462.4 223.2 473.6 266.4 483.2 298.4 488 317.6 492.8 332 494.4 344.8 492.8 359.2 491.2 367.2 484.8 370.4 473.6 368.8 457.6 362.4 443.2 352.8 433.6 340 419.2 322.4 393.6 344.8 417.6 367.2 438.4 388 465.6 402.4 494.4 408.8 512 413.6 532.8 413.6 548.8 407.2 561.6 400.8 571.2 388 574.4 373.6 579.2 354.4 561.6 277.6 521.6 141.6 516.8 128.8 513.6 114.4 515.2 100 518.4 87.2 526.4 80.8 540.8 84 556.8 87.2 571.2 96.8 580.8 109.6 595.2 124 624 106.4 598.4 80.8Z"  horiz-adv-x="1024" vert-adv-y="1024"  />

      
      <glyph glyph-name="uniE222" unicode="&#xE222;" d="M416 332H736V268H416L512 172 464 124 288 300 464 476 512 428 416 332Z"  horiz-adv-x="1024" vert-adv-y="1024"  />

      
      <glyph glyph-name="uniE23F" unicode="&#xE23F;" d="M690.24 716L809.12 596.96 749.76 537.76 630.88 656.64ZM601.12 626.88L720 508 304 92H185.12V210.88ZM928 2.88V-116H96V2.88Z"  horiz-adv-x="1024" vert-adv-y="1024"  />

      
      <glyph glyph-name="uniE24E" unicode="&#xE24E;" d="M796.8 684H163.2C144 684 128 671.2 128 653.6V-119.2C128-135.2 144-149.6 163.2-149.6H569.6L832 63.2V653.6C832 671.2 816 684 796.8 684ZM192 620H768V124H566.4C528 124 496 96.8 496 61.6V-84H192V620ZM560-74.4V58.4C561.6 58.4 563.2 60 566.4 60H726.4L560-74.4ZM272 540H672V476H272ZM272 412H569.6V348H272ZM272 284H688V220H272Z"  horiz-adv-x="1024" vert-adv-y="1024"  />

      
      <glyph glyph-name="uniE21C" unicode="&#xE21C;" d="M202.3965 661.587L320.516 545.7157C378.9978 570.6052 443.8046 584.4444 512.007 584.4444 714.3848 584.4444 886.8646 462.5912 952.8944 291.7554 916.4426 211.2122 856.348 142.6461 780.9315 93.977L887.6517-10.7388C898.7828-21.6599 898.7828-39.3664 887.6517-50.2874L876.1348-61.587C865.0038-72.508 846.9567-72.508 835.8257-61.587L150.5705 610.7388C139.4395 621.6599 139.4395 639.3664 150.5705 650.2874L162.0874 661.587C173.2185 672.508 191.2655 672.508 202.3965 661.587ZM212.6411 481.8615L325.8389 370.7832C317.4717 348.7896 312.8901 324.9299 312.8901 300 312.8901 190.034 402.0351 100.8889 512.0012 100.8889 538.2741 100.8889 563.3586 105.9775 586.3227 115.2229L664.0486 38.9606C616.2707 23.7785 565.1477 15.5556 512.007 15.5556 314.3687 15.5556 144.6377 129.2957 71.1111 291.7633 100.0281 366.5578 149.3457 431.9621 212.6411 481.8615ZM384.6606 313.0738L527.4999 172.9288C522.4193 172.3156 517.2471 172 512.0012 172 441.3087 172 384.0012 229.3076 384.0012 300 384.0012 304.4137 384.2246 308.7752 384.6606 313.0738ZM512.0012 499.1111C471.2748 499.1111 433.4042 486.8838 401.8603 465.8999L522.6551 347.3976C533.8087 361.82 540.4456 379.9127 540.4456 399.5556 540.4456 408.1243 539.1826 416.3981 536.8327 424.201L536.3635 425.6844C595.4044 414.3075 640.0012 362.3618 640.0012 300 640.0012 280.1529 635.4841 261.3609 627.4219 244.5958L679.9745 193.0415C699.6882 223.9364 711.1123 260.6341 711.1123 300 711.1123 409.966 621.9672 499.1111 512.0012 499.1111Z"  horiz-adv-x="1024" vert-adv-y="1024"  />

      
      <glyph glyph-name="uniE21E" unicode="&#xE21E;" d="M960 300A448 448 0 1 1 413.92-137.12C413.12-124.16 416-102.4 416-85.12 416-64 416-9.76 416-9.76A259.36 259.36 0 0 0 375.84-12.48 86.56 86.56 0 0 0 288 46.72 102.24 102.24 0 0 1 245.12 97.76C235.36 104.16 233.12 111.68 245.12 113.76 297.76 123.68 311.36 54.08 346.72 42.88A98.72 98.72 0 0 1 420.16 48.8 77.76 77.76 0 0 0 450.4 98.24C360.8 107.04 307.68 138.24 280.32 188.16L277.44 193.76A134.56 134.56 0 0 0 270.56 209.76L268.48 215.52A267.04 267.04 0 0 0 256 301.6C256 359.2 273.92 381.6 298.08 411.68A154.88 154.88 0 0 0 304 522.24S342.72 530.08 416 477.76C455.68 494.72 561.44 496.32 611.36 481.6 642.24 501.92 698.4 530.72 720.96 522.56 727.04 512.8 740.32 483.84 728.64 420.96 736.8 407.2 776.64 377.44 776.64 292.96A336 336 0 0 0 768 214.88L766.4 209.12C764.64 203.68 762.72 198.4 760.64 193.12L758.24 187.52C731.68 129.12 677.28 107.52 589.28 98.4 617.76 80.32 625.92 57.76 625.92-3.36S624.96-72.48 625.92-86.56A213.76 213.76 0 0 0 625.92-134.56 448 448 0 0 1 960 300Z"  horiz-adv-x="1024" vert-adv-y="1024"  />

      
      <glyph glyph-name="uniE247" unicode="&#xE247;" d="M704 460L752 412 448 108 272 284 320 332 448 204Z"  horiz-adv-x="1024" vert-adv-y="1024"  />

      
      <glyph glyph-name="uniE23B" unicode="&#xE23B;" d="M864 396V590.72A61.12 61.12 0 0 1 802.72 652H608A96 96 0 0 1 416 652H221.28A61.12 61.12 0 0 1 160 590.72V396H208A96 96 0 0 0 208 204H160V9.28A61.12 61.12 0 0 1 221.28-52H416V-4A96 96 0 0 0 608-4V-52H802.72A61.12 61.12 0 0 1 864 9.28V204A96 96 0 0 1 864 396Z"  horiz-adv-x="1024" vert-adv-y="1024"  />

      
      <glyph glyph-name="uniE23C" unicode="&#xE23C;" d="M904.32 619.2A17.92 17.92 0 0 1 899.36 620H464V641.28A42.88 42.88 0 0 1 421.28 684H106.72A42.88 42.88 0 0 1 64 641.28V22.72A42.88 42.88 0 0 1 106.72-20H899.36A60.64 60.64 0 0 1 960 40.64V556A64 64 0 0 1 904.32 619.2ZM256 124H192V188H256ZM256 284H192V348H256ZM256 444H192V508H256ZM832 124H320V188H832ZM832 284H320V348H832ZM832 444H320V508H832Z"  horiz-adv-x="1024" vert-adv-y="1024"  />

      
      <glyph glyph-name="uniE221" unicode="&#xE221;" d="M512 730.4C406.4 730.4 320 644 320 538.4H704C704 645.6 617.6 730.4 512 730.4ZM768 218.4H928V282.4H768V410.4H784C854.4 410.4 912 468 912 538.4H848C848 503.2 819.2 474.4 784 474.4H768 256 240C204.8 474.4 176 503.2 176 538.4H112C112 468 169.6 410.4 240 410.4H256V282.4H96V218.4H256V122.4C256 112.8 257.6 101.6 257.6 92 182.4 72.8 128 4 128-77.6 128-85.6 128-93.6 129.6-101.6H195.2C193.6-93.6 192-85.6 192-77.6 192-26.4 225.6 16.8 273.6 29.6 307.2-56.8 385.6-119.2 480-132V346.4H544V-132C638.4-120.8 716.8-56.8 750.4 29.6 796.8 16.8 832-26.4 832-77.6 832-85.6 830.4-93.6 828.8-101.6H894.4C896-93.6 896-85.6 896-77.6 896 4 841.6 71.2 766.4 92 768 101.6 768 112.8 768 122.4V218.4Z"  horiz-adv-x="1024" vert-adv-y="1024"  />

      
      <glyph glyph-name="uniE26A" unicode="&#xE26A;" d="M160 524H224C225.6 524 227.2 524 228.8 524 243.2 468 292.8 428 352 428S462.4 469.6 475.2 524C476.8 524 478.4 524 480 524H864C881.6 524 896 538.4 896 556 896 573.6 881.6 588 864 588H480C478.4 588 476.8 588 475.2 588 460.8 644 411.2 684 352 684S241.6 642.4 228.8 588C227.2 588 225.6 588 224 588H160C142.4 588 128 573.6 128 556 128 538.4 142.4 524 160 524ZM352 620C387.2 620 416 591.2 416 556S387.2 492 352 492 288 520.8 288 556 316.8 620 352 620ZM864 332H800C798.4 332 796.8 332 795.2 332 780.8 388 731.2 428 672 428S561.6 386.4 548.8 332C547.2 332 545.6 332 544 332H160C142.4 332 128 317.6 128 300 128 282.4 142.4 268 160 268H544C545.6 268 547.2 268 548.8 268 563.2 212 612.8 172 672 172S782.4 213.6 795.2 268C796.8 268 798.4 268 800 268H864C881.6 268 896 282.4 896 300 896 317.6 881.6 332 864 332ZM672 236C636.8 236 608 264.8 608 300S636.8 364 672 364 736 335.2 736 300 707.2 236 672 236ZM864 76H480C478.4 76 476.8 76 475.2 76 460.8 132 411.2 172 352 172S241.6 130.4 228.8 76C227.2 76 225.6 76 224 76H160C142.4 76 128 61.6 128 44 128 26.4 142.4 12 160 12H224C225.6 12 227.2 12 228.8 12 243.2-44 292.8-84 352-84S462.4-42.4 475.2 12C476.8 12 478.4 12 480 12H864C881.6 12 896 26.4 896 44 896 61.6 881.6 76 864 76ZM352-20C316.8-20 288 8.8 288 44S316.8 108 352 108 416 79.2 416 44 387.2-20 352-20Z"  horiz-adv-x="1024" vert-adv-y="1024"  />

      
      <glyph glyph-name="uniE223" unicode="&#xE223;" d="M560 600.8C553.6 605.6 545.6 608.8 537.6 608.8H160C142.4 608.8 128 594.4 128 576.8V-116C128-133.6 142.4-148 160-148H726.4C744-148 758.4-133.6 758.4-116V400.8C758.4 410.4 755.2 418.4 748.8 424.8L560 600.8ZM694.4-84H192V544.8H524.8L694.4 386.4V-84ZM886.4 479.2L628.8 738.4C622.4 744.8 614.4 748 606.4 748H297.6V684H593.6L832 442.4V-12H896V456.8C896 464.8 892.8 472.8 886.4 479.2ZM320 92H576V28H320ZM480 428L416 428 416 332 320 332 320 268 416 268 416 172 480 172 480 268 576 268 576 332 480 332Z"  horiz-adv-x="1024" vert-adv-y="1024"  />

      
      <glyph glyph-name="uniE101" unicode="&#xE101;" d="M704 460L752 412 448 108 272 284 320 332 448 204Z"  horiz-adv-x="1024" vert-adv-y="1024"  />

      
      <glyph glyph-name="uniE103" unicode="&#xE103;" d="M907.582 649.525C907.582 726.712 845.016 789.335 767.772 789.335S627.962 726.712 627.962 649.525C627.962 592.843 661.75 544.144 710.217 522.18 696.994 408.701 623.884 385.808 518.269 352.835 467.005 336.815 407.41 318.174 357.08 281.94V521.13C406.772 542.628 441.548 592.025 441.548 649.521 441.548 726.708 378.925 789.331 301.738 789.331 224.492 789.331 161.928 726.708 161.928 649.521 161.928 592.024 196.706 542.625 246.396 521.13V78.806C196.704 57.427 161.928 8.027 161.928-49.529 161.928-126.716 224.494-189.339 301.738-189.339 378.925-189.339 441.548-126.716 441.548-49.529 441.548 7.153 407.76 55.852 359.234 77.816 372.516 191.295 445.682 214.247 551.238 247.161 658.601 280.714 803.244 325.979 821.187 520.314 871.869 541.402 907.578 591.268 907.578 649.523ZM221.056 649.525C221.056 694.089 257.173 730.207 301.738 730.207S382.42 694.09 382.42 649.525 346.303 568.843 301.738 568.843 221.056 604.96 221.056 649.525ZM301.739-130.207C257.175-130.207 221.057-94.09 221.057-49.525S257.174 31.157 301.739 31.157 382.421-4.96 382.421-49.525 346.304-130.207 301.739-130.207ZM767.772 568.844C723.266 568.844 687.09 604.961 687.09 649.526S723.265 730.208 767.772 730.208 848.454 694.091 848.454 649.526 812.279 568.844 767.772 568.844Z"  horiz-adv-x="1024" vert-adv-y="1024"  />

      
      <glyph glyph-name="uniE102" unicode="&#xE102;" d="M256-84H128V108A32 32 0 0 0 160 140H224A32 32 0 0 0 256 108ZM468.7872-84H340.7872V236A32 32 0 0 0 372.7872 268H436.7872A32 32 0 0 0 468.7872 236ZM683.2128-84H555.2128V123.9744A32 32 0 0 0 587.2128 156.0256H651.2128A32 32 0 0 0 683.2128 123.9744ZM896-84H768V364A32 32 0 0 0 800 396H864A32 32 0 0 0 896 364ZM896 716H710.4A16.0256 16.0256 0 0 1 699.1872 688.8128L777.6256 610.3744 614.4 447.2A96.9728 96.9728 0 0 0 491.2128 435.9872L449.5872 464.8128A158.1056 158.1056 0 0 1 244.7872 447.2L105.6256 307.9872A30.72 30.72 0 0 1 104.448 264.16C104.8064 263.7504 105.216 263.392 105.6256 262.9824A38.0416 38.0416 0 0 1 128 255.2 31.9488 31.9488 0 0 1 150.3744 264.7744L289.5872 403.9872A96.9216 96.9216 0 0 0 412.7744 415.2L454.4 386.4256A158.0544 158.0544 0 0 1 659.2 403.9872L822.4256 567.2128 900.8128 488.8256A15.9744 15.9744 0 0 1 928 499.9872V684A32 32 0 0 1 896 716Z"  horiz-adv-x="1024" vert-adv-y="1024"  />

      
      <glyph glyph-name="uniE104" unicode="&#xE104;" d="M928 812H96C43.072 812 0 768.928 0 716V-116C0-168.928 43.072-212 96-212H928C980.928-212 1024-168.928 1024-116V716C1024 768.928 980.928 812 928 812ZM64 716C64 733.6 78.4 748 96 748H928C945.6 748 960 733.6 960 716V108H667.136C656.8 149.76 631.136 184.256 596.576 205.92L595.904 206.304 703.872 446.88C705.76 450.848 706.848 455.456 706.848 460.352 706.848 478.016 692.512 492.352 674.848 492.352 661.792 492.352 650.56 484.512 645.568 473.312L645.472 473.12 535.584 228.32C527.84 229.472 520.032 230.688 511.968 230.688 436.64 230.688 373.728 178.208 356.832 108H63.968V716ZM512 166.688C564.928 166.688 608 123.616 608 70.688S564.928-25.312 512-25.312 416 17.76 416 70.688 459.072 166.688 512 166.688ZM960-116C960-133.6 945.6-148 928-148H96C78.336-147.968 64.032-133.664 64-116V44H354.688C367.488-31.52 432.896-89.312 512-89.312S656.512-31.52 669.312 44H960V-116ZM815.68 483.616C820.352 480.8 825.984 479.136 832.032 479.136 849.696 479.136 864.032 493.472 864.032 511.136 864.032 522.08 858.528 531.744 850.176 537.504L850.08 537.568C754.368 599.296 637.44 635.968 511.968 635.968 385.024 635.968 266.848 598.432 167.936 533.824L170.368 535.296C161.504 529.504 155.744 519.648 155.744 508.416 155.744 490.752 170.08 476.416 187.744 476.416 194.208 476.416 200.224 478.336 205.248 481.632L205.12 481.568C291.808 538.336 397.952 572.096 512.032 572.096 624.768 572.096 729.792 539.104 817.984 482.272L815.744 483.616Z"  horiz-adv-x="1024" vert-adv-y="1024"  />

      
      <glyph glyph-name="uniE107" unicode="&#xE107;" d="M512-84C490.816-84 470.912-75.744 456-60.768L23.168 372.064C4.032 391.2 0 410.592 0 423.456S4.032 455.712 23.232 474.848L233.92 675.168C239.648 680.64 247.424 684 256 684 256 684 256 684 256 684H768C768 684 768 684 768 684 776.576 684 784.352 680.64 790.08 675.168L790.08 675.168 1000.256 475.36C1015.744 459.936 1024 440.864 1024 421.152 1024 401.504 1015.744 382.432 1000.768 367.52L567.808-60.96C553.088-75.744 533.184-84 512-84ZM268.8 620L67.84 429.024C66.144 427.488 64.832 425.6 64.032 423.424L64 423.328C65.088 420.96 66.56 418.976 68.384 417.312L68.416 417.312 501.312-15.584C509.056-23.328 515.008-23.264 522.624-15.648L955.712 412.896C957.248 414.496 960 417.76 960 421.152 960 424.608 957.248 427.872 955.648 429.536L755.2 620H268.8ZM512 140C512 140 512 140 512 140 503.168 140 495.168 143.584 489.344 149.344L297.152 341.6C291.584 347.36 288.16 355.2 288.16 363.84 288.16 381.504 302.496 395.84 320.16 395.84 328.8 395.84 336.64 392.416 342.4 386.848L512 217.248 680.896 386.144C686.656 391.712 694.496 395.136 703.136 395.136 720.8 395.136 735.136 380.8 735.136 363.136 735.136 354.496 731.712 346.656 726.144 340.896L534.656 149.408C528.864 143.584 520.864 140 512 140V140Z"  horiz-adv-x="1024" vert-adv-y="1024"  />

      
      <glyph glyph-name="uniE105" unicode="&#xE105;" d="M960 364C977.664 364 992 378.336 992 396S977.664 428 960 428V428H896V556H960C977.664 556 992 570.336 992 588S977.664 620 960 620V620H896C894.016 620 892.352 619.232 890.432 618.912 880.608 646.976 858.912 668.672 831.52 678.304L830.848 678.496C831.232 680.352 832 682.016 832 684V748C832 765.664 817.664 780 800 780S768 765.664 768 748V748 684H640V748C640 765.664 625.664 780 608 780S576 765.664 576 748V748 684H448V748C448 765.664 433.664 780 416 780S384 765.664 384 748V748 684H256V748C256 765.664 241.664 780 224 780S192 765.664 192 748V748 684C192 682.016 192.768 680.352 193.088 678.432 165.12 668.832 143.168 646.88 133.568 618.912 131.648 619.232 129.984 620 128 620H64C46.336 620 32 605.664 32 588S46.336 556 64 556V556H128V428H64C46.336 428 32 413.664 32 396S46.336 364 64 364V364H128V236H64C46.336 236 32 221.664 32 204S46.336 172 64 172V172H128V44H64C46.336 44 32 29.664 32 12S46.336-20 64-20V-20H128C129.984-20 131.648-19.232 133.568-18.912 143.168-46.88 165.12-68.896 193.152-78.496 192.768-80.352 192-82.016 192-84V-148C192-165.664 206.336-180 224-180S256-165.664 256-148V-148-84H384V-148C384-165.664 398.336-180 416-180S448-165.664 448-148V-148-84H576V-148C576-165.664 590.336-180 608-180S640-165.664 640-148V-148-84H768V-148C768-165.664 782.336-180 800-180S832-165.664 832-148V-148-84C832-82.016 831.232-80.352 830.912-78.432 858.88-68.832 880.896-46.88 890.496-18.848 892.352-19.232 894.016-20 896-20H960C977.664-20 992-5.664 992 12S977.664 44 960 44V44H896V172H960C977.664 172 992 186.336 992 204S977.664 236 960 236V236H896V364H960ZM832 12C832-5.6 817.6-20 800-20H224C206.336-20 192-5.664 192 12V12 588C192 605.664 206.336 620 224 620V620H800C817.6 620 832 605.6 832 588V12ZM672 556H352C299.072 556 256 512.928 256 460V140C256 87.072 299.072 44 352 44H672C724.928 44 768 87.072 768 140V460C768 512.928 724.928 556 672 556ZM704 140C704 122.4 689.6 108 672 108H352C334.336 108 320 122.336 320 140V140 460C320 477.664 334.336 492 352 492V492H672C689.6 492 704 477.6 704 460V140Z"  horiz-adv-x="1024" vert-adv-y="1024"  />

      
      <glyph glyph-name="uniE106" unicode="&#xE106;" d="M343.8116 545.8092L385.1961 587.1764 403.2943 569.0707 361.9098 527.7035ZM380.36 509.2203L421.7351 550.5969 439.8374 532.4952 398.4623 491.1187ZM73.1429 812C32.9143 812 0 779.0857 0 738.8571V-212L1024 812H73.1429ZM281.6 625.4857L299.8857 651.0857C310.8571 647.4286 321.8286 643.7714 336.4571 640.1143L373.0286 676.6857C369.3714 691.3143 365.7143 702.2857 362.0571 716.9143L387.6571 727.8857C391.3143 716.9143 391.3143 705.9429 394.9714 694.9714L446.1714 746.1714 464.4571 727.8857 281.6 545.0286 259.6571 566.9714 314.5143 621.8286C303.5429 621.8286 292.5714 625.4857 281.6 625.4857ZM223.0857 537.7143C230.4 515.7714 237.7143 497.4857 237.7143 471.8857L212.1143 464.5714C208.4571 486.5143 204.8 508.4571 197.4857 526.7429L223.0857 537.7143ZM76.8 402.4C102.4 398.7429 120.6857 395.0857 138.9714 391.4286L135.3143 362.1714C117.0286 365.8286 98.7429 369.4857 73.1429 373.1429L76.8 402.4ZM373.0286 347.5429L365.7143 354.8571 226.7429 215.8857 208.4571 234.1714 347.4286 373.1429 318.1714 402.4 190.1714 274.4 171.8857 292.6857 299.8857 420.6857 270.6286 449.9429 131.6571 310.9714 109.7143 332.9143 179.2 402.4 117.0286 464.5714 135.3143 482.8571 197.4857 420.6857 266.9714 490.1714 391.3143 365.8286 373.0286 347.5429ZM497.3714 471.8857L482.7429 457.2571 457.1429 471.8857 475.4286 482.8571C479.0857 486.5143 479.0857 493.8286 471.7714 501.1429L457.1429 515.7714 416.9143 475.5429 460.8 431.6571 442.5143 409.7143 307.2 545.0286 387.6571 625.4857 497.3714 515.7714C512 501.1429 512 486.5143 497.3714 471.8857ZM504.6857 545.0286L416.9143 632.8 435.2 651.0857 522.9714 563.3143 504.6857 545.0286ZM552.2286 526.7429L530.2857 541.3714C541.2571 548.6857 548.5714 556 555.8857 566.9714 559.5429 570.6286 559.5429 577.9429 555.8857 581.6L446.1714 691.3143 464.4571 709.6 581.4857 592.5714C596.1143 577.9429 596.1143 563.3143 581.4857 552.3429L552.2286 526.7429Z"  horiz-adv-x="1024" vert-adv-y="1024"  />

      
      <glyph glyph-name="uniE108" unicode="&#xE108;" d="M512 26.9333A17.0496 17.0496 0 0 0 499.9339 56.0661L743.8677 300 499.9339 543.9339A17.0496 17.0496 0 1 0 524.0661 568.0661L780.0661 312.0661A17.0496 17.0496 0 0 0 780.0661 287.9339L524.0661 31.9339A17.0155 17.0155 0 0 0 512 26.9333ZM256 26.9333A17.0496 17.0496 0 0 0 243.9339 56.0661L487.8677 300 243.9339 543.9339A17.0496 17.0496 0 1 0 268.0661 568.0661L524.0661 312.0661A17.0496 17.0496 0 0 0 524.0661 287.9339L268.0661 31.9339A17.0155 17.0155 0 0 0 256 26.9333Z"  horiz-adv-x="1024" vert-adv-y="1024"  />

      
      <glyph glyph-name="uniE109" unicode="&#xE109;" d="M512 556V492H352C332.8 492 320 479.2 320 460L320 460V140C320 120.8 332.8 108 352 108L352 108H672C691.2 108 704 120.8 704 140L704 140V300H768V140C768 85.6 726.4 44 672 44L672 44H352C297.6 44 256 85.6 256 140L256 140V460C256 514.4 297.6 556 352 556L352 556H512ZM704 588C758.4 588 800 546.4 800 492L800 492V364H736V466.4L556.8 300 512 344.8 704 524H576V588H704Z"  horiz-adv-x="1024" vert-adv-y="1024"  />

      
      <glyph glyph-name="uniE10A" unicode="&#xE10A;" d="M121.589 645.586L421.56 248.144V43.535L601.648-44.356V248.144L901.794 645.586H121.589Z"  horiz-adv-x="1024" vert-adv-y="1024"  />

      
      <glyph glyph-name="uniE10B" unicode="&#xE10B;" d="M559.104-212H497.344C446.016-212 405.568-174.048 403.584-124.896L393.856-79.776C375.776-73.568 361.12-67.488 346.88-60.64L349.504-61.76 304.064-92.608C272.512-122.496 212.032-120.512 178.432-87.36L134.4-44.032C117.216-27.168 106.496-3.744 106.368 22.176V22.208C106.368 22.496 106.368 22.88 106.368 23.232 106.368 47.552 115.712 69.664 131.008 86.208L130.944 86.144 156.352 125.44C148.864 139.776 141.376 157.184 135.008 175.136L134.08 178.112 80.384 188.992C37.376 190.72 0 231.68 0 281.6V343.424C0 343.552 0 343.712 0 343.84 0 393.92 39.392 434.784 88.864 437.184L89.088 437.184 130.496 445.952C136.896 465.408 144.704 484.288 153.792 502.528L127.104 543.168C113.984 557.312 106.048 579.648 106.24 602.752 106.432 627.776 116.352 651.2 134.272 668.736L178.368 711.936C194.88 728.192 219.328 738.304 242.112 738.304 269.44 738.112 292.928 727.808 311.04 709.312L343.232 687.04C360.64 694.912 378.176 700.544 395.584 705.664L404.096 743.552C404.64 760.256 411.52 775.264 422.4 786.304L422.4 786.304C438.912 803.136 464.896 812.032 497.344 812.032H559.168C625.408 812.032 650.816 774.912 652.864 738.496L659.84 713.28C678.144 707.2 696.064 699.776 713.6 691.136L752.32 717.504C783.808 747.584 844.16 745.344 877.824 712.384L921.792 668.928C938.72 652.064 949.216 628.704 949.216 602.912 949.216 576.768 938.464 553.152 921.12 536.224L921.088 536.192 898.24 502.08C906.816 483.264 912.704 464.32 917.952 445.632L958.4 436.288C979.456 435.584 1024 421.376 1024 343.424V281.6C1024 201.344 974.336 189.312 952.448 187.904L923.52 179.776C917.12 161.216 909.44 143.168 900.608 125.76L929.728 81.152C942.08 67.584 950.336 45.44 950.272 22.4 950.176-3.584 939.488-27.04 922.272-43.872L922.24-43.904 878.208-87.168C860.672-104.448 837.312-113.92 812.672-113.92 812.544-113.92 812.416-113.92 812.256-113.92 786.208-113.92 762.656-103.264 745.728-86.08L745.728-86.08 707.392-60.736C693.568-67.2 678.976-72.896 663.168-78.144L652.48-130.56C651.488-151.232 642.784-169.664 629.184-183.232L629.184-183.232C611.392-200.992 586.816-211.968 559.712-211.968 559.488-211.968 559.296-211.968 559.072-211.968H559.104ZM347.008 7.328C352.192 7.328 357.312 6.048 362.048 3.552 383.616-7.968 406.464-17.248 430.08-24.096 441.344-27.456 449.856-36.544 452.384-47.872L452.416-48.096 466.816-114.4C467.328-116.576 467.584-118.88 467.584-121.12 467.584-138.72 482.56-148 497.408-148H559.232C559.36-148 559.488-148 559.648-148 568.864-148 577.216-144.416 583.456-138.56L583.424-138.592C585.344-136.608 588.608-132.576 588.48-127.968 588.48-127.808 588.48-127.584 588.48-127.392 588.48-125.088 588.704-122.816 589.152-120.64L589.12-120.864 604.224-46.88C606.688-35.168 615.296-25.952 626.464-22.624L626.688-22.56C652.768-15.2 675.328-6.048 696.608 5.248L694.72 4.32C699.072 6.656 704.288 8.064 709.792 8.064 716.48 8.064 722.72 6.016 727.872 2.528L727.744 2.592 786.432-37.088C796.928-46.752 804.544-49.952 812.736-49.952 812.768-49.952 812.8-49.952 812.832-49.952 820.832-49.952 828.096-46.752 833.408-41.568L833.408-41.568 877.44 1.696C883.04 7.072 886.496 14.592 886.496 22.944 886.496 30.464 883.68 37.344 879.008 42.56L879.04 42.528 836.736 106.72C833.44 111.648 831.488 117.728 831.488 124.256 831.488 130.112 833.056 135.584 835.808 140.288L835.712 140.128C849.216 163.552 859.968 188.768 867.712 215.008 870.912 225.6 879.136 233.728 889.568 236.704L889.792 236.768 939.072 250.528C941.632 251.296 944.544 251.744 947.584 251.744 947.648 251.744 947.68 251.744 947.744 251.744H947.744C952.416 251.744 960.224 251.744 960.224 281.632V343.392C960.224 372.576 953.504 372.96 949.408 373.216L885.088 387.552C873.6 390.272 864.64 398.912 861.472 409.984L861.408 410.208C852.896 441.312 846.048 466.336 833.44 488.736 830.848 493.248 829.28 498.688 829.28 504.48 829.28 511.2 831.36 517.44 834.912 522.592L834.848 522.496 871.968 576.832C881.824 587.584 885.408 595.2 885.344 602.304 885.344 602.464 885.344 602.656 885.344 602.848 885.344 610.848 882.144 618.112 876.96 623.424L876.96 623.424 832.992 666.752C822.88 676.672 803.104 678.016 796.064 670.72 794.496 669.088 792.8 667.616 790.912 666.368L790.816 666.304 733.728 627.52C728.672 624 722.432 621.92 715.68 621.92 709.984 621.92 704.672 623.392 700.032 626.016L700.192 625.92C678.656 638.176 653.696 648.768 627.488 656.416L624.992 657.024C614.208 660.16 605.92 668.512 602.912 679.072L602.848 679.296 590.176 725.12C589.408 727.648 588.96 730.528 588.96 733.536 588.96 733.568 588.96 733.6 588.96 733.632V733.632C588.96 738.304 588.96 748.032 559.136 748.032H497.376C477.216 748.032 469.024 742.656 468.064 741.376 468.064 741.088 468.064 740.768 468.064 740.448 468.064 737.696 467.776 735.008 467.232 732.448L467.264 732.704 453.76 673.056C451.104 661.6 442.56 652.608 431.52 649.44L431.296 649.376C402.112 641.056 377.92 634.144 356.224 621.984 351.744 619.424 346.368 617.888 340.64 617.888 333.696 617.888 327.296 620.128 322.08 623.904L322.176 623.84 269.76 660.832C259.2 670.816 251.072 675.36 244.16 674.336 244.128 674.336 244.064 674.336 244 674.336 236 674.336 228.704 671.296 223.2 666.304L223.232 666.336 179.072 623.136C173.632 617.856 170.24 610.496 170.24 602.336V602.336C170.24 602.048 170.24 601.728 170.24 601.376 170.24 595.936 171.712 590.816 174.304 586.464L174.24 586.592C176.224 584.8 177.44 583.264 178.912 581.024L217.696 521.824C220.992 516.864 222.944 510.784 222.944 504.224 222.944 498.464 221.408 493.056 218.752 488.384L218.848 488.544C205.92 466.016 194.912 439.968 187.168 412.544L186.592 410.08C183.328 398.592 174.112 389.856 162.56 387.328L162.336 387.296 99.424 373.92C97.472 373.504 95.232 373.28 92.96 373.28 92.896 373.28 92.832 373.28 92.768 373.28H92.768C76.864 373.12 64.032 360.16 64.032 344.224 64.032 343.968 64.032 343.68 64.032 343.424L64.032 343.456V281.632C64.032 264.096 76.32 252.96 88.288 252.32L165.152 237.28C176.896 234.848 186.144 226.24 189.472 215.104L189.536 214.88C197.408 188.128 208.096 162.912 221.28 140 223.968 135.424 225.536 129.92 225.536 124.064 225.536 117.6 223.616 111.584 220.288 106.528L220.352 106.656 182.976 48.928C181.728 47.008 180.384 45.344 178.88 43.808L178.88 43.808C173.568 38.496 170.304 31.136 170.304 23.04 170.304 22.944 170.304 22.848 170.304 22.752V22.752C170.304 22.72 170.304 22.656 170.304 22.624 170.304 14.4 173.696 6.944 179.2 1.664L179.2 1.664 223.232-41.664C233.344-51.712 253.568-52.992 260.288-45.696 261.856-44.064 263.552-42.592 265.44-41.344L265.536-41.28 328.96 1.856C334.016 5.312 340.256 7.392 347.008 7.424H347.008ZM528.256 129.696C425.408 129.696 341.632 213.408 341.632 316.256S425.408 502.816 528.256 502.816 714.816 419.104 714.816 316.256 631.104 129.696 528.256 129.696ZM528.256 438.816C460.608 438.816 405.632 383.84 405.632 316.256S460.608 193.696 528.256 193.696C595.84 193.696 650.816 248.672 650.816 316.256S595.84 438.816 528.256 438.816Z"  horiz-adv-x="1024" vert-adv-y="1024"  />

      
      <glyph glyph-name="uniE10C" unicode="&#xE10C;" d="M0 283.5551V315.5999C0.3102 317.8334 0.6204 320.0669 0.8686 322.3005 4.1258 349.3199 5.6458 376.6805 10.9815 403.2656A497.2687 497.2687 0 0 0 112.6687 619.8241 507.7848 507.7848 0 0 0 318.6801 773.844 494.5698 494.5698 0 0 0 471.3971 809.8906C480.114 810.511 488.8309 811.2865 497.5479 812H526.1183C528.7551 811.6898 531.3919 811.2245 534.0287 811.1314A498.5095 498.5095 0 0 0 670.7078 786.5006C765.0741 755.4485 844.1159 701.6268 907.1198 624.9426 974.0324 543.5121 1012.1884 450.0145 1021.6498 344.9149A509.8633 509.8633 0 0 0 1013.8015 199.3017 501.1153 501.1153 0 0 0 953.1552 40.6286C904.6381-41.3292 838.5631-105.3258 754.8061-150.5546 668.7535-196.9932 576.5897-216.6916 478.9042-210.6425 429.7357-207.5714 381.777-198.172 335.8037-180.552 194.0372-126.234 93.8389-28.7656 36.1396 111.8221A478.0046 478.0046 0 0 0 2.1715 258.0557C1.52 266.5555 0.7135 275.0553 0 283.5551ZM512.0347-148.4762C760.9793-147.6386 960.5072 52.7579 960.197 300.1204A447.6969 447.6969 0 0 1 512.2519 748.1585C264.7033 748.4687 63.9966 547.8551 63.8105 300.0273 63.5933 52.6338 264.5482-148.4452 512.0658-148.4762ZM256.5758 12.2443A32.6032 32.6032 0 0 0 227.2918 58.838C243.4228 94.8846 259.926 130.776 276.2742 166.7295 312.3207 246.0505 348.4914 325.3405 384.3208 404.7856A43.7398 43.7398 0 0 0 407.3384 427.9895C522.1166 479.9188 636.7397 532.1584 751.4248 584.2429 772.7363 593.9215 793.9237 584.46 798.7941 563.1485 800.7174 554.7728 798.4838 547.0796 795.0095 539.4484 747.7023 435.4655 700.4261 331.4207 653.1499 227.3758 648.0314 216.1772 642.7578 204.9786 637.8254 193.6558A35.302 35.302 0 0 0 619.2127 174.8881C503.1317 122.1521 387.0816 69.3542 270.9696 16.6803 266.4405 14.6019 261.353 13.7023 256.5758 12.2443ZM702.9698 491.6138C700.333 490.5901 699.0921 490.1868 697.9444 489.6595 613.4118 451.2553 528.8482 412.8511 444.3777 374.2298A15.5106 15.5106 0 0 1 437.6461 366.9089C405.6323 296.8631 373.8046 226.7864 341.9459 156.6787L320.6654 109.8368C323.8606 111.1086 325.8459 111.8221 327.7692 112.6907 411.3091 150.6606 494.8801 188.5994 578.3269 226.7554A16.4412 16.4412 0 0 1 585.803 234.2005C607.3627 281.1354 628.6432 328.1945 650.0167 375.1605L702.9698 491.6138ZM543.7383 299.655A31.6726 31.6726 0 0 0 511.2902 268.1996 31.7346 31.7346 0 0 0 479.9589 300.1514C479.9589 317.7714 494.6319 332.2893 512.1278 332.1031A32.0758 32.0758 0 0 0 543.7694 299.655Z"  horiz-adv-x="1024" vert-adv-y="1024"  />

      
      <glyph glyph-name="uniE10D" unicode="&#xE10D;" d="M864 684H288C270.4 684 256 669.6 256 652V556H160C142.4 556 128 541.6 128 524V-52C128-69.6 142.4-84 160-84H736C753.6-84 768-69.6 768-52V44H864C881.6 44 896 58.4 896 76V652C896 669.6 881.6 684 864 684ZM704 108V44-20H192V492H256 320 704V108ZM832 108H768V524C768 541.6 753.6 556 736 556H320V620H832V108ZM275.2 392.8H611.2V328.8H275.2ZM272 268H608V204H272ZM272 140H608V76H272Z"  horiz-adv-x="1024" vert-adv-y="1024"  />

      
      <glyph glyph-name="uniE10E" unicode="&#xE10E;" d="M512 524H768V460H512ZM512 332H768V268H512ZM512 140H768V76H512ZM387.2 44L387.2 44C374.4 44 364.8 47.2 355.2 56.8L278.4 133.6C265.6 146.4 265.6 165.6 278.4 178.4L278.4 178.4C291.2 191.2 310.4 191.2 323.2 178.4L368 133.6V556H432V88.8C432 63.2 412.8 44 387.2 44Z"  horiz-adv-x="1024" vert-adv-y="1024"  />

      
      <glyph glyph-name="uniE10F" unicode="&#xE10F;" d="M512-129.056L331.264 390.624H693.248L512-129.056ZM512-129.056L919.04 390.624H692.736L512-129.056ZM805.888 729.056L919.04 390.112H692.736L805.888 729.056ZM512-129.056L919.04 390.624 986.624 209.888 512-129.056ZM512-129.056L104.96 390.624H331.264L512-129.056ZM218.112 729.056L104.96 390.624H331.264L218.112 729.056ZM512-129.056L104.96 390.624 37.376 209.376 512-129.056Z"  horiz-adv-x="1024" vert-adv-y="1024"  />

      
      <glyph glyph-name="uniE110" unicode="&#xE110;" d="M512 748C264 748 64 548 64 300 64 242.4 75.2 186.4 96 133.6V-84C96-101.6 110.4-116 128-116H345.6C576-207.2 836.8-96.8 928 133.6S908.8 624.8 678.4 716C625.6 736.8 569.6 748 512 748ZM500.8 90.4C473.6 90.4 452.8 111.2 452.8 138.4S473.6 186.4 500.8 186.4C528 186.4 548.8 165.6 548.8 138.4S528 90.4 500.8 90.4ZM587.2 304.8C550.4 284 539.2 269.6 539.2 242.4V228H464V244C460.8 288.8 475.2 314.4 515.2 336.8 552 359.2 563.2 372 563.2 397.6S542.4 442.4 510.4 442.4C481.6 444 457.6 423.2 454.4 394.4 454.4 392.8 454.4 392.8 454.4 391.2H377.6C379.2 461.6 427.2 509.6 513.6 509.6 593.6 509.6 646.4 464.8 646.4 399.2 648 357.6 627.2 327.2 587.2 304.8Z"  horiz-adv-x="1024" vert-adv-y="1024"  />

      
      <glyph glyph-name="uniE111" unicode="&#xE111;" d="M694.4 440.8L649.6 485.6 512 348 377.6 485.6 329.6 440.8 467.2 303.2 329.6 162.4 377.6 117.6 512 255.2 649.6 117.6 694.4 162.4 556.8 303.2Z"  horiz-adv-x="1024" vert-adv-y="1024"  />

      
      <glyph glyph-name="uniE112" unicode="&#xE112;" d="M512 652V652C548.8 652 576 624.8 576 588V588C576 551.2 548.8 524 512 524V524C475.2 524 448 551.2 448 588V588C448 624.8 475.2 652 512 652ZM512 364V364C548.8 364 576 336.8 576 300V300C576 263.2 548.8 236 512 236V236C475.2 236 448 263.2 448 300V300C448 336.8 475.2 364 512 364ZM512 76V76C548.8 76 576 48.8 576 12V12C576-24.8 548.8-52 512-52V-52C475.2-52 448-24.8 448 12V12C448 48.8 475.2 76 512 76Z"  horiz-adv-x="1024" vert-adv-y="1024"  />

      
      <glyph glyph-name="uniE113" unicode="&#xE113;" d="M758.4 101.6L662.4 194.4C691.2 232.8 707.2 280.8 707.2 332 707.2 456.8 604.8 559.2 480 559.2S256 453.6 256 328.8 358.4 101.6 483.2 101.6C534.4 101.6 579.2 117.6 617.6 146.4L716.8 53.6 758.4 101.6ZM320 328.8C320 418.4 393.6 492 483.2 492S646.4 418.4 646.4 328.8C646.4 239.2 572.8 165.6 483.2 165.6S320 239.2 320 328.8Z"  horiz-adv-x="1024" vert-adv-y="1024"  />

      
      <glyph glyph-name="uniE114" unicode="&#xE114;" d="M947.2 31.2L592 660C566.4 703.2 512 719.2 467.2 695.2 452.8 687.2 441.6 674.4 432 660L76.8 31.2C60.8 2.4 60.8-32.8 76.8-61.6 92.8-90.4 123.2-108 155.2-106.4H868.8C900.8-106.4 931.2-88.8 947.2-61.6 963.2-32.8 964.8 2.4 947.2 31.2ZM512 44C492.8 44 475.2 60 475.2 79.2 475.2 98.4 491.2 116 510.4 116 529.6 116 547.2 100 547.2 80.8 547.2 80.8 547.2 80.8 547.2 80.8 547.2 60 531.2 44 512 44L512 44ZM547.2 388L536 164C536 151.2 524.8 140 512 140S488 151.2 488 164L476.8 388C476.8 389.6 476.8 391.2 476.8 391.2 476.8 410.4 492.8 428 513.6 428S548.8 412 548.8 391.2L548.8 391.2C548.8 391.2 548.8 389.6 547.2 388Z"  horiz-adv-x="1024" vert-adv-y="1024"  />

      
      <glyph glyph-name="uniE115" unicode="&#xE115;" d="M864 684H496V620H787.2L361.6 194.4 406.4 149.6 832 575.2V284H896V652C896 669.6 881.6 684 864 684ZM832 108V-20H192V620H318.4V684H160C142.4 684 128 669.6 128 652V-52C128-69.6 142.4-84 160-84H864C881.6-84 896-69.6 896-52V108H832Z"  horiz-adv-x="1024" vert-adv-y="1024"  />

      
      <glyph glyph-name="uniE116" unicode="&#xE116;" d="M608 588C713.6 588 800 501.6 800 396S713.6 204 608 204C566.4 204 528 216.8 496 239.2L390.4 133.6 432 92 384 44 342.4 85.6 294.4 37.6 249.6 82.4 454.4 287.2C432 319.2 419.2 357.6 419.2 399.2 416 501.6 502.4 588 608 588ZM608 524C537.6 524 480 466.4 480 396S537.6 268 608 268 736 325.6 736 396 678.4 524 608 524Z"  horiz-adv-x="1024" vert-adv-y="1024"  />

      
      <glyph glyph-name="uniE117" unicode="&#xE117;" d="M230.4 648.672H593.408V716.256H269.312ZM143.872 494.56H881.152L841.728 562.656H181.76ZM883.2 103.392H139.776L179.712 35.808H844.288ZM752.64 716.256H643.072V648.672H793.6ZM972.8 256.48H775.68V188.384H933.888ZM90.624 188.384H293.888V256.48H51.2ZM348.672 256.48H727.552V188.384H348.672V256.48ZM796.16-48.672H342.016V-116.256H757.76ZM267.264-116.256H291.84V-48.672H226.816ZM54.784 341.472H454.656V409.568H93.696ZM929.28 409.568H508.928V341.472H969.728Z"  horiz-adv-x="1024" vert-adv-y="1024"  />

      
      <glyph glyph-name="uniE118" unicode="&#xE118;" d="M297.11 450.373C273.367 450.373 254.131 469.671 254.131 493.352 254.131 517.112 273.367 536.331 297.111 536.331 320.871 536.331 340.089 517.111 340.089 493.351 340.089 469.672 320.869 450.373 297.11 450.373ZM726.899 450.373C703.155 450.373 683.92 469.671 683.92 493.352 683.92 517.112 703.155 536.331 726.899 536.331 750.659 536.331 769.878 517.111 769.878 493.351 769.878 469.672 750.658 450.373 726.898 450.373ZM812.857-86.815H211.153C163.728-86.815 125.195-48.297 125.195-0.857V600.847C125.195 648.223 163.728 686.805 211.153 686.805H812.857C860.297 686.805 898.814 648.223 898.814 600.847V-0.857C898.814-48.297 860.296-86.815 812.857-86.815ZM855.835 600.847C855.835 624.559 836.584 643.826 812.857 643.826H211.153C187.441 643.826 168.173 624.559 168.173 600.846V-0.857C168.173-24.586 187.441-43.836 211.153-43.836H812.857C836.585-43.836 855.835-24.585 855.835-0.857V600.847ZM512.005 257.016C381.645 257.016 275.669 363.024 275.669 493.352 275.669 505.232 285.246 514.889 297.11 514.889 308.99 514.889 318.648 505.231 318.648 493.352 318.648 386.735 405.357 299.995 512.005 299.995 618.668 299.995 705.458 386.736 705.458 493.352 705.458 505.232 715.035 514.889 726.898 514.889 738.778 514.889 748.436 505.231 748.436 493.352 748.436 363.024 642.38 257.016 512.005 257.016Z"  horiz-adv-x="1024" vert-adv-y="1024"  />

      
      <glyph glyph-name="uniE119" unicode="&#xE119;" d="M225.024 172C207.36 172 193.024 186.336 193.024 204V204 524C193.024 541.664 207.36 556 225.024 556S257.024 541.664 257.024 524V524 204C257.024 186.336 242.688 172 225.024 172V172ZM416.32 172C398.656 172 384.32 186.336 384.32 204V204 332C384.32 349.664 398.656 364 416.32 364S448.32 349.664 448.32 332V332 204C448.32 186.336 433.984 172 416.32 172V172ZM607.68 172C590.016 172 575.68 186.336 575.68 204V204 524C575.68 541.664 590.016 556 607.68 556S639.68 541.664 639.68 524V524 204C639.68 186.336 625.344 172 607.68 172V172ZM798.976 172C781.312 172 766.976 186.336 766.976 204V204 332C766.976 349.664 781.312 364 798.976 364S830.976 349.664 830.976 332V332 204C830.976 186.336 816.64 172 798.976 172V172ZM744-152.032H289.984C272.32-152.032 257.984-137.696 257.984-120.032S272.32-88.032 289.984-88.032V-88.032H744C761.664-88.032 776-102.368 776-120.032S761.664-152.032 744-152.032V-152.032ZM928 44H96C43.072 44 0 87.072 0 140V652C0 704.928 43.072 748 96 748H928C980.928 748 1024 704.928 1024 652V140C1024 87.072 980.928 44 928 44ZM96 684C78.336 684 64 669.664 64 652V652 140C64 122.336 78.336 108 96 108V108H928C945.6 108 960 122.4 960 140V652C960 669.664 945.664 684 928 684V684H96Z"  horiz-adv-x="1024" vert-adv-y="1024"  />

      
      <glyph glyph-name="uniE11A" unicode="&#xE11A;" d="M896 332H811.2C798.4 380 753.6 413.6 704 412 654.4 412 609.6 380 596.8 332H544V444H513.6C489.6 444 470.4 460 464 482.4 459.2 508 475.2 533.6 500.8 538.4 504 538.4 507.2 540 510.4 540H542.4V684C542.4 701.6 528 716 510.4 716H128C110.4 716 96 701.6 96 684V-84C96-101.6 110.4-116 128-116H896C913.6-116 928-101.6 928-84V300C928 317.6 913.6 332 896 332ZM480 652V599.2C420.8 581.6 387.2 519.2 404.8 460 416 423.2 443.2 396 480 384.8V332H368V301.6C368 277.6 352 258.4 329.6 252 304 247.2 278.4 263.2 273.6 288.8 273.6 292 272 295.2 272 298.4V330.4H160V652H480ZM160 268H212.8C230.4 208.8 292.8 175.2 352 192.8 388.8 204 416 231.2 427.2 268H480V156H510.4C534.4 156 553.6 140 560 117.6 564.8 92 548.8 66.4 523.2 61.6 518.4 60 515.2 60 512 60H480V-52H160V268ZM864-52H544V0.8C603.2 18.4 636.8 80.8 619.2 140 608 176.8 580.8 204 544 215.2V268H656V300C656 325.6 675.2 346.4 700.8 348 726.4 351.2 748.8 332 750.4 306.4 750.4 304.8 750.4 301.6 750.4 300V268H862.4V-52Z"  horiz-adv-x="1024" vert-adv-y="1024"  />

      
      <glyph glyph-name="uniE11B" unicode="&#xE11B;" d="M800-52V300A285.92 285.92 0 0 1 715.6 503.6C661.2 557.9 588.9 588 512 588A285.92 285.92 0 0 1 308.4 503.6C254.1 449.2 224 376.9 224 300V-52H128V-116H896V-52ZM490.8 89.8L443.2 132.6 512.5 209.7 422.6 299.6 534.4 411.4 579.6 366.2 513.1 299.6 600.7 212ZM480 748H544V620H480ZM832 332H960V268H832ZM64 332H192V268H64ZM714.3427 548.6446L804.8524 639.1543 850.1072 593.8995 759.5975 503.3898ZM173.7206 593.7086L218.9754 638.9634 309.4851 548.4538 264.2302 503.1989Z"  horiz-adv-x="1024" vert-adv-y="1024"  />

      
      <glyph glyph-name="uniE11C" unicode="&#xE11C;" d="M800 300C800 376.9 770 449.3 715.6 503.6S588.9 588 512 588L512 588C435.1 588 362.7 558 308.4 503.6S224 376.9 224 300V-52H128V-116H224 800 896V-52H800V300ZM288-52V300C288 359.8 311.3 416.1 353.6 458.4S452.2 524 512 524 628.1 500.7 670.4 458.4 736 359.8 736 300V-52H288ZM579.6 366.2L534.4 411.4 422.6 299.6 512.5 209.7 443.2 132.6 490.8 89.8 600.7 212 513.1 299.6ZM480 748H544V620H480ZM832 332H960V268H832ZM64 332H192V268H64ZM714.336 548.6423L804.8441 639.1536 850.0997 593.8995 759.5916 503.3883ZM173.7135 593.7056L218.9675 638.9612 309.4788 548.4531 264.2247 503.1975Z"  horiz-adv-x="1024" vert-adv-y="1024"  />

      
      <glyph glyph-name="uniE11D" unicode="&#xE11D;" d="M642.73 630.0542L324.7198 327.3991C319.126 322.0753 315.5451 315.4309 314.0005 308.4171 310.9816 295.8771 314.5467 282.1254 324.5544 272.6009L324.5544 272.6009 642.5646-30.0542C658.4603-45.1824 683.4323-45.1692 699.312-30.0242 699.7481-29.6084 700.174-29.182 700.5894-28.7456 714.8052-13.8085 714.2205 9.8246 699.2835 24.0404L699.2835 24.0404 409.4151 299.9289 699.4489 575.9596C714.386 590.1754 714.9706 613.8085 700.7548 628.7456 700.3394 629.182 699.9135 629.6084 699.4775 630.0242 683.5978 645.1692 658.6257 645.1824 642.73 630.0542Z"  horiz-adv-x="1024" vert-adv-y="1024"  />

      
      <glyph glyph-name="uniE11E" unicode="&#xE11E;" d="M512 748C264 748 64 548 64 300S264-148 512-148 960 52 960 300 760 748 512 748ZM512 44C484.8 44 464 64.8 464 92S484.8 140 512 140C539.2 140 560 119.2 560 92S539.2 44 512 44ZM560 503.2L544 204C544 186.4 529.6 172 512 172 494.4 172 480 186.4 480 204L464 503.2C464 504.8 464 506.4 464 508 464 535.2 484.8 556 512 556 539.2 556 560 535.2 560 508 560 506.4 560 504.8 560 503.2Z"  horiz-adv-x="1024" vert-adv-y="1024"  />

      
      <glyph glyph-name="uniE11F" unicode="&#xE11F;" d="M512 220L736-4 688-52 512 124 336-52 288-4 512 220ZM688 652L736 604 512 380 288 604 336 652 512 476 688 652Z"  horiz-adv-x="1024" vert-adv-y="1024"  />

      
      <glyph glyph-name="uniE120" unicode="&#xE120;" d="M512 748C760 748 960 548 960 300S760-148 512-148 64 52 64 300 264 748 512 748ZM512 684C299.2 684 128 512.8 128 300 128 87.2 299.2-84 510.4-85.6 612.8-85.6 710.4-45.6 784 28 934.4 178.4 934.4 421.6 785.6 570.4 785.6 570.4 785.6 570.4 784 572 712 644 614.4 684 512 684ZM704 460L752 412 448 108 272 284 320 332 448 204Z"  horiz-adv-x="1024" vert-adv-y="1024"  />

      
      <glyph glyph-name="uniE121" unicode="&#xE121;" d="M464 348V620H560V348H832V252H560V-20H464V252H192V348Z"  horiz-adv-x="1024" vert-adv-y="1024"  />

      
      <glyph glyph-name="uniE122" unicode="&#xE122;" d="M842.0542 430.73L539.3991 112.7198C534.0753 107.126 527.4309 103.5451 520.4171 102.0005 507.8771 98.9816 494.1254 102.5467 484.6009 112.5544L484.6009 112.5544 181.9458 430.5646C166.8176 446.4603 166.8308 471.4323 181.9758 487.312 182.3916 487.7481 182.818 488.174 183.2544 488.5894 198.1915 502.8052 221.8246 502.2205 236.0404 487.2835L236.0404 487.2835 511.9289 197.4151 787.9596 487.4489C802.1754 502.386 825.8085 502.9706 840.7456 488.7548 841.182 488.3394 841.6084 487.9135 842.0242 487.4775 857.1692 471.5978 857.1824 446.6257 842.0542 430.73Z"  horiz-adv-x="1024" vert-adv-y="1024"  />

      
      <glyph glyph-name="uniE123" unicode="&#xE123;" d="M381.27 630.0542L699.2802 327.3991C704.874 322.0753 708.4549 315.4309 709.9995 308.4171 713.0184 295.8771 709.4533 282.1254 699.4456 272.6009L699.4456 272.6009 381.4354-30.0542C365.5397-45.1824 340.5677-45.1692 324.688-30.0242 324.2519-29.6084 323.826-29.182 323.4106-28.7456 309.1948-13.8085 309.7795 9.8246 324.7165 24.0404L324.7165 24.0404 614.5849 299.9289 324.5511 575.9596C309.614 590.1754 309.0294 613.8085 323.2452 628.7456 323.6606 629.182 324.0865 629.6084 324.5225 630.0242 340.4022 645.1692 365.3743 645.1824 381.27 630.0542Z"  horiz-adv-x="1024" vert-adv-y="1024"  />

      
      <glyph glyph-name="uniE124" unicode="&#xE124;" d="M842.0542 169.27L539.3991 487.2802C534.0753 492.874 527.4309 496.4549 520.4171 497.9995 507.8771 501.0184 494.1254 497.4533 484.6009 487.4456L484.6009 487.4456 181.9458 169.4354C166.8176 153.5397 166.8308 128.5677 181.9758 112.688 182.3916 112.2519 182.818 111.826 183.2544 111.4106 198.1915 97.1948 221.8246 97.7795 236.0404 112.7165L236.0404 112.7165 511.9289 402.5849 787.9596 112.5511C802.1754 97.614 825.8085 97.0294 840.7456 111.2452 841.182 111.6606 841.6084 112.0865 842.0242 112.5225 857.1692 128.4022 857.1824 153.3743 842.0542 169.27Z"  horiz-adv-x="1024" vert-adv-y="1024"  />

      
      <glyph glyph-name="uniE125" unicode="&#xE125;" d="M512 684C724.8 684 896 512.8 896 300S724.8-84 512-84 128 87.2 128 300 299.2 684 512 684M512 748C264 748 64 548 64 300S264-148 512-148 960 52 960 300 760 748 512 748ZM648 480.8L692.8 436 556.8 300 692.8 164 648 119.2 512 255.2 376 119.2 331.2 164 467.2 300 331.2 436 376 480.8 512 344.8 648 480.8Z"  horiz-adv-x="1024" vert-adv-y="1024"  />

      
      <glyph glyph-name="uniE126" unicode="&#xE126;" d="M908.864 684H899.264C765.888 684 644.096 726.112 592.64 798.688 586.304 805.088 572.864 812 554.56 812H533.44C514.368 812 497.088 805.92 492.032 794.72 442.688 725.024 323.648 684 188.736 684H179.136C150.912 684 128 653.024 128 624.608L128.064 273.056C142.144 38.24 309.952-160.736 536.128-210.848 538.208-211.328 540.576-211.616 543.04-211.616S547.872-211.328 550.176-210.816L549.952-210.848C772.608-161.568 938.624 31.904 957.248 261.92 958.976 265.76 959.968 270.24 960 274.976V624.608C960 653.92 937.984 684 908.864 684ZM896 285.984C894.976 283.296 894.304 280.192 894.144 276.96L894.144 276.896C881.92 72.864 737.984-100.384 543.04-146.784 348.096-100.32 204.16 72.8 192 274.976V612.064C342.208 612.832 472.704 663.008 539.328 748H547.904C609.984 665.824 745.216 612.832 896 612.064V285.984ZM416 460C416 400.544 456.96 350.88 512 336.544V-20C512-37.664 526.336-52 544-52S576-37.664 576-20V-20 44H640C657.664 44 672 58.336 672 76S657.664 108 640 108V108H576V172H640C657.664 172 672 186.336 672 204S657.664 236 640 236V236H576V336.544C631.04 350.88 672 400.544 672 460 672 530.592 614.592 588 544 588S416 530.592 416 460ZM608 460C608 424.64 579.36 396 544 396S480 424.64 480 460V460C480 495.36 508.64 524 544 524S608 495.36 608 460V460Z"  horiz-adv-x="1024" vert-adv-y="1024"  />

      
      <glyph glyph-name="uniE127" unicode="&#xE127;" d="M277.088 257.952C251.488 257.952 227.36 267.936 209.184 286.048L28.192 467.104C10.848 484.48 0.096 508.512 0.096 535.008S10.816 585.536 28.192 602.912L209.184 783.904C226.496 801.248 250.432 812 276.896 812 276.96 812 277.024 812 277.12 812H277.12C302.72 812 326.848 802.016 345.024 783.904L526.08 602.912C544.192 584.8 554.176 560.672 554.176 535.008S544.192 485.216 526.08 467.104L345.024 286.112C326.848 268 302.784 257.952 277.12 257.952ZM277.088 748C277.056 748 276.992 748 276.96 748 268.192 748 260.224 744.416 254.496 738.656L73.44 557.6C67.648 551.808 64.096 543.776 64.096 534.944S67.68 518.08 73.44 512.288L254.496 331.36C260.384 325.792 268.352 322.336 277.12 322.336S293.856 325.76 299.744 331.36L299.744 331.36 480.8 512.352C486.592 518.144 490.176 526.176 490.176 535.008S486.592 551.872 480.8 557.664V557.664L299.744 738.656C293.952 744.416 285.952 748 277.152 748 277.12 748 277.12 748 277.088 748H277.088ZM928.096 300H672.096C619.168 300 576.096 343.072 576.096 396V652C576.096 704.928 619.168 748 672.096 748H928.096C981.024 748 1024.096 704.928 1024.096 652V396C1024.096 343.072 981.024 300 928.096 300ZM672.096 684C654.432 684 640.096 669.664 640.096 652V652 396C640.096 378.336 654.432 364 672.096 364V364H928.096C945.76 364 960.096 378.336 960.096 396V396 652C960.096 669.664 945.76 684 928.096 684V684H672.096ZM928.096-212H672.096C619.168-212 576.096-168.928 576.096-116V140C576.096 192.928 619.168 236 672.096 236H928.096C981.024 236 1024.096 192.928 1024.096 140V-116C1024.096-168.928 981.024-212 928.096-212ZM672.096 172C654.496 172 640.096 157.6 640.096 140V-116C640.096-133.6 654.496-148 672.096-148H928.096C945.696-148 960.096-133.6 960.096-116V140C960.096 157.6 945.696 172 928.096 172H672.096ZM416.096-212H160.096C107.168-212 64.096-168.928 64.096-116V140C64.096 192.928 107.168 236 160.096 236H416.096C469.024 236 512.096 192.928 512.096 140V-116C512.096-168.928 469.024-212 416.096-212ZM160.096 172C142.496 172 128.096 157.6 128.096 140V-116C128.096-133.6 142.496-148 160.096-148H416.096C433.696-148 448.096-133.6 448.096-116V140C448.096 157.6 433.696 172 416.096 172H160.096Z"  horiz-adv-x="1024" vert-adv-y="1024"  />

      
      <glyph glyph-name="uniE129" unicode="&#xE129;" d="M512 732L649.6 447.2 960 402.4 736 181.6 790.4-132 512 15.2 233.6-132 288 181.6 64 402.4 374.4 447.2 512 732ZM512 588L412.8 386.4 192 354.4 352 197.6 313.6-20 512 82.4 710.4-20 672 200.8 832 357.6 611.2 389.6 512 588Z"  horiz-adv-x="1024" vert-adv-y="1024"  />

      
      <glyph glyph-name="uniE12A" unicode="&#xE12A;" d="M305.6 151.2L308.8 148 308.8 148 358.4 98.4C374.4 82.4 374.4 56.8 358.4 40.8 356.8 39.2 355.2 37.6 355.2 37.6L129.6-138.4C112-152.8 86.4-149.6 72-132 59.2-117.6 59.2-95.2 72-80.8L248 144.8C262.4 162.4 288 165.6 305.6 151.2ZM652.8 732L944 440.8C963.2 424.8 966.4 396 948.8 376.8 929.6 360.8 900.8 362.4 884.8 383.2L851.2 418.4 851.2 418.4 680 247.2C684.8 239.2 691.2 236 691.2 223.2S672 24.8 672 24.8C668.8-7.2 659.2-28 633.6-29.6 616-31.2 600-24.8 588.8-12L198.4 375.2C177.6 392.8 174.4 423.2 192 444 203.2 455.2 219.2 460 233.6 460 233.6 460 409.6 476 428.8 477.6 440 479.2 449.6 476 456 468L627.2 639.2 592 674.4C572.8 690.4 569.6 719.2 585.6 738.4 608 752.8 636.8 751.2 652.8 732Z"  horiz-adv-x="1024" vert-adv-y="1024"  />

      
      <glyph glyph-name="uniE12B" unicode="&#xE12B;" d="M688 156L736 108 512-116 288 108 336 156 512-20 688 156ZM512 716L736 492 688 444 512 620 336 444 288 492 512 716Z"  horiz-adv-x="1024" vert-adv-y="1024"  />

      
      <glyph glyph-name="uniE12C" unicode="&#xE12C;" d="M512.192-124.128C499.136-124.128 485.76-120.352 472.512-113.12L236.608 17.056C210.56 31.392 161.664 44 132.032 44H96C43.072 44 0 87.072 0 140V460C0 512.928 43.072 556 96 556H126.016C155.776 556 204.8 568.416 230.976 582.624L472.448 713.632C523.968 741.664 576 709.216 576 652V-52C576-94.432 549.76-124.128 512.192-124.128ZM512.192-60.192V-92.128L512.448-60.064 512.192-60.192ZM96 492C78.4 492 64 477.6 64 460V140C64 122.4 78.4 108 96 108H132.032C172.544 108 232.064 92.704 267.52 73.056L503.424-57.056C505.728-58.432 508.416-59.488 511.264-60.032L511.424-60.064C511.232-59.104 512-56.544 512-52V652C512 658.912 510.336 661.344 510.336 661.344 511.04 660.32 508.16 660.064 503.04 657.312L261.504 526.368C225.856 507.04 166.4 492 126.016 492H96ZM674.432 7.84C656.768 7.84 642.432 22.176 642.432 39.84 642.432 48.672 645.984 56.64 651.776 62.432L651.776 62.432C713.536 124.32 751.712 209.76 751.712 304.128S713.536 483.936 651.744 545.824L651.744 545.824C646.176 551.584 642.752 559.424 642.752 568.064 642.752 585.728 657.088 600.064 674.752 600.064 683.392 600.064 691.232 596.64 696.992 591.072L696.992 591.072C770.304 517.6 815.648 416.16 815.648 304.128S770.304 90.656 696.992 17.184L696.992 17.184C691.264 11.424 683.328 7.84 674.56 7.84 674.496 7.84 674.464 7.84 674.4 7.84H674.4ZM804.48-122.336C786.816-122.336 772.48-108 772.48-90.336 772.48-81.504 776.032-73.536 781.824-67.744L781.824-67.744C876.928 26.88 935.808 157.824 935.808 302.56 935.808 303.072 935.808 303.584 935.808 304.128V304.064C935.808 304.512 935.808 305.024 935.808 305.536 935.808 450.272 876.928 581.28 781.856 675.872L781.824 675.904C776.256 681.664 772.832 689.504 772.832 698.144 772.832 715.808 787.168 730.144 804.832 730.144 813.472 730.144 821.312 726.72 827.072 721.152L827.072 721.152C933.76 615.04 999.808 468.128 999.808 305.76 999.808 305.152 999.808 304.544 999.808 303.968V304.064C999.808 303.584 999.808 303.008 999.808 302.432 999.808 140.096 933.76-6.848 827.104-112.96L827.072-112.992C821.312-118.752 813.344-122.336 804.512-122.336 804.512-122.336 804.48-122.336 804.448-122.336H804.448Z"  horiz-adv-x="1024" vert-adv-y="1024"  />

      
      <glyph glyph-name="uniE12D" unicode="&#xE12D;" d="M928 812H96C43.072 812 0 768.928 0 716V-116C0-168.928 43.072-212 96-212H928C980.928-212 1024-168.928 1024-116V716C1024 768.928 980.928 812 928 812ZM64 716C64 733.6 78.4 748 96 748H928C945.6 748 960 733.6 960 716V556H64V716ZM960-116C960-133.6 945.6-148 928-148H96C78.336-147.968 64.032-133.664 64-116V492H960V-116ZM681.344-10.656C687.136-16.448 695.168-20 704-20S720.832-16.416 726.656-10.656L886.656 149.344C892.448 155.136 896.032 163.136 896.032 171.968S892.448 188.8 886.656 194.592L726.656 354.592C720.896 360.16 713.056 363.584 704.416 363.584 686.752 363.584 672.416 349.248 672.416 331.584 672.416 322.944 675.84 315.104 681.408 309.344L818.752 172 681.408 34.656C675.584 28.864 671.968 20.832 671.968 11.968S675.552-4.864 681.344-10.656V-10.656ZM297.344-10.656C303.136-16.448 311.168-20 320-20S336.864-16.416 342.656-10.656L342.656-10.656C348.448-4.864 352.032 3.136 352.032 11.968S348.448 28.8 342.656 34.592L205.248 172 342.592 309.344C348.16 315.104 351.584 322.944 351.584 331.584 351.584 349.248 337.248 363.584 319.584 363.584 310.944 363.584 303.104 360.16 297.344 354.592L137.344 194.592C131.552 188.8 127.968 180.8 127.968 171.968S131.552 155.136 137.344 149.344L297.344-10.656ZM439.168-82.72C441.824-83.52 444.864-83.968 448.032-83.968 462.528-83.968 474.784-74.304 478.688-61.056L478.752-60.832 606.752 387.168C607.552 389.824 608.032 392.896 608.032 396.064 608.032 410.56 598.368 422.784 585.088 426.656L584.864 426.72C582.144 427.584 579.008 428.064 575.744 428.064 561.28 428.064 549.088 418.336 545.376 405.056L545.312 404.832 417.312-43.168C416.512-45.824 416.032-48.896 416.032-52.064 416.032-66.56 425.728-78.784 438.976-82.656L439.2-82.72ZM808.96 674.464C803.392 668.64 799.968 660.736 799.968 652.032 799.968 643.04 803.616 634.912 809.536 629.024L809.536 629.024C815.328 623.424 823.232 619.936 831.968 619.936 840.992 619.936 849.12 623.616 854.976 629.568L854.976 629.568C860.8 635.968 864 643.648 864 651.968S860.8 667.968 854.4 674.432C842.88 686.528 821.76 686.528 808.96 674.432ZM681.536 675.04C675.136 669.28 672 660.96 672 652 672 643.68 675.2 635.36 681.536 629.6 687.36 623.2 695.68 620 704 620S720.64 623.2 726.976 629.6C732.8 636 736 643.68 736 652S732.8 668.64 726.4 674.464C720.512 680.128 712.48 683.616 703.648 683.616 695.104 683.616 687.328 680.352 681.504 675.008L681.536 675.04ZM552.96 674.464C547.2 668.64 544 660.32 544 652S547.2 635.36 553.536 629.6C559.36 623.2 567.68 620 576 620S592.64 623.2 598.4 629.6C604.8 635.36 608 643.68 608 652S604.8 668.64 598.4 675.04C586.88 686.56 565.76 686.56 552.96 674.464Z"  horiz-adv-x="1024" vert-adv-y="1024"  />

      
      <glyph glyph-name="uniE12E" unicode="&#xE12E;" d="M906.24 349.28L512-14.88 117.76 349.28C104.96 361.44 84.48 360.16 72.32 347.36S61.44 314.08 74.24 301.92L490.24-82.08C496.64-87.84 504.32-90.4 512-90.4S527.36-87.84 533.76-82.08L949.76 301.92C962.56 314.08 963.84 333.92 951.68 347.36 939.52 360.16 919.04 360.8 906.24 349.28ZM490.24 250.72C496.64 244.96 504.32 242.4 512 242.4S527.36 244.96 533.76 250.72L949.76 634.72C962.56 646.88 963.84 666.72 951.68 680.16 939.52 692.96 919.68 693.6 906.24 682.08L512 317.92 117.76 682.08C104.96 694.24 84.48 693.6 72.32 680.16 60.16 667.36 61.44 646.88 74.24 634.72L490.24 250.72Z"  horiz-adv-x="1024" vert-adv-y="1024"  />

      
      <glyph glyph-name="uniE12F" unicode="&#xE12F;" d="M197.12 300L561.28 694.24C573.44 707.04 572.16 727.52 559.36 739.68S526.08 750.56 513.92 737.76L129.92 321.76C118.4 309.6 118.4 290.4 129.92 278.24L513.92-137.76C520.32-144.8 529.28-148 537.6-148 545.28-148 552.96-145.44 559.36-139.68 572.16-127.52 573.44-107.68 561.28-94.24L197.12 300ZM529.92 300L894.08 694.24C906.24 707.04 904.96 727.52 892.16 739.68S858.88 750.56 846.72 737.76L462.72 321.76C451.2 309.6 451.2 290.4 462.72 278.24L846.72-137.76C853.12-144.8 861.44-148 870.4-148 878.08-148 885.76-145.44 892.16-139.68 904.96-127.52 906.24-107.68 894.08-94.24L529.92 300Z"  horiz-adv-x="1024" vert-adv-y="1024"  />

      
      <glyph glyph-name="uniE132" unicode="&#xE132;" d="M512 14.56C504.32 14.56 496.64 17.12 490.24 22.88L10.24 465.76C-2.56 477.92-3.84 497.76 8.32 511.2 20.48 524 40.32 525.28 53.76 513.12L512 90.08 970.24 513.12C983.04 525.28 1003.52 524 1015.68 511.2S1026.56 477.92 1013.76 465.76L533.76 22.88C527.36 17.12 519.68 14.56 512 14.56Z"  horiz-adv-x="1024" vert-adv-y="1024"  />

      
      <glyph glyph-name="uniE131" unicode="&#xE131;" d="M894.08 321.76L510.08 737.76C497.92 750.56 478.08 751.84 464.64 739.68 451.84 727.52 450.56 707.68 462.72 694.24L826.88 300 462.72-94.24C450.56-107.04 451.84-127.52 464.64-139.68 471.04-145.44 478.72-148 486.4-148 494.72-148 503.68-144.8 510.08-137.76L894.08 278.24C904.96 290.4 904.96 309.6 894.08 321.76ZM561.28 321.76L177.28 737.76C165.12 750.56 145.28 751.84 131.84 739.68 119.04 727.52 117.76 707.68 129.92 694.24L494.08 300 129.92-94.24C117.76-107.04 119.04-127.52 131.84-139.68 138.24-145.44 145.92-148 153.6-148 161.92-148 170.88-144.8 177.28-137.76L561.28 278.24C572.16 290.4 572.16 309.6 561.28 321.76Z"  horiz-adv-x="1024" vert-adv-y="1024"  />

      
      <glyph glyph-name="uniE130" unicode="&#xE130;" d="M704-148C695.68-148 686.72-144.8 680.32-137.76L296.32 278.24C284.8 290.4 284.8 309.6 296.32 321.76L680.32 737.76C692.48 750.56 712.32 751.84 725.76 739.68 738.56 727.52 739.84 707.68 727.68 694.24L363.52 300 727.68-94.24C739.84-107.04 738.56-127.52 725.76-139.68 719.36-145.44 711.68-148 704-148Z"  horiz-adv-x="1024" vert-adv-y="1024"  />

      
      <glyph glyph-name="uniE135" unicode="&#xE135;" d="M117.76 250.72L512 614.88 906.24 250.72C912.64 244.96 920.32 242.4 928 242.4 936.32 242.4 945.28 245.6 951.68 252.64 963.84 265.44 962.56 285.92 949.76 298.08L533.76 682.08C521.6 693.6 502.4 693.6 490.24 682.08L74.24 298.08C61.44 285.92 60.16 266.08 72.32 252.64 84.48 239.84 104.96 239.2 117.76 250.72ZM533.76 349.28C521.6 360.8 502.4 360.8 490.24 349.28L74.24-34.72C61.44-46.88 60.16-66.72 72.32-80.16 84.48-92.96 104.32-93.6 117.76-82.08L512 282.08 906.24-82.08C912.64-87.84 920.32-90.4 928-90.4 936.32-90.4 945.28-87.2 951.68-80.16 963.84-67.36 962.56-46.88 949.76-34.72L533.76 349.28Z"  horiz-adv-x="1024" vert-adv-y="1024"  />

      
      <glyph glyph-name="uniE133" unicode="&#xE133;" d="M992 14.56C984.32 14.56 976.64 17.12 970.24 22.88L512 445.92 53.76 22.88C40.96 10.72 20.48 11.36 8.32 24.8-3.84 37.6-2.56 58.08 10.24 70.24L490.24 513.12C502.4 524.64 521.6 524.64 533.76 513.12L1013.76 70.24C1026.56 58.08 1027.84 38.24 1015.68 24.8 1009.28 17.76 1000.32 14.56 992 14.56Z"  horiz-adv-x="1024" vert-adv-y="1024"  />

      
      <glyph glyph-name="uniE134" unicode="&#xE134;" d="M352.2133-212H96.0427C43.008-212 0-168.992 0-115.9573V140.2133C0 193.248 43.008 236.256 96.0427 236.256H352.2133C405.248 236.256 448.256 193.248 448.256 140.2133V-115.9573C448.256-168.992 405.248-212 352.2133-212ZM352.2133 300.3413H96.0427C43.008 300.3413 0 343.3493 0 396.384V652.5547C0 705.5893 43.008 748.5973 96.0427 748.5973H352.2133C405.248 748.5973 448.256 705.5893 448.256 652.5547V396.384C448.256 343.3493 405.248 300.3413 352.2133 300.3413ZM864.5547-212H608.384C555.3493-212 512.3413-168.992 512.3413-115.9573V140.2133C512.3413 193.248 555.3493 236.256 608.384 236.256H864.5547C917.5893 236.256 960.5973 193.248 960.5973 140.2133V-115.9573C960.5973-168.992 917.5893-212 864.5547-212ZM752.4693 268.2987C752.4267 268.2987 752.3413 268.2987 752.2987 268.2987 725.8453 268.2987 701.8667 279.0507 684.5867 296.4587L508.4587 472.5867C491.0933 489.952 480.384 513.9733 480.384 540.4693S491.136 590.9867 508.4587 608.352L684.5867 784.48C702.2507 801.248 726.144 811.5733 752.4693 811.5733S802.688 801.248 820.3947 784.4373L996.48 608.352C1013.8453 590.9867 1024.5547 566.9653 1024.5547 540.4693S1013.8027 489.952 996.48 472.5867L820.352 296.4587C803.072 279.0507 779.0933 268.2987 752.64 268.2987 752.5973 268.2987 752.512 268.2987 752.4693 268.2987Z"  horiz-adv-x="1024" vert-adv-y="1024"  />

      
      <glyph glyph-name="uniE137" unicode="&#xE137;" d="M352.2133-212H96.0427C43.008-212 0-168.992 0-115.9573V140.2133C0 193.248 43.008 236.256 96.0427 236.256H352.2133C405.248 236.256 448.256 193.248 448.256 140.2133V-115.9573C448.256-168.992 405.248-212 352.2133-212ZM96.0427 172.256C78.3787 172.256 64.0427 157.92 64.0427 140.256V-115.9147C64.0427-133.5787 78.3787-147.9147 96.0427-147.9147H352.2133C369.8773-147.9147 384.2133-133.5787 384.2133-115.9147V140.256C384.2133 157.92 369.8773 172.256 352.2133 172.256ZM352.2133 300.3413H96.0427C43.008 300.3413 0 343.3493 0 396.384V652.5547C0 705.5893 43.008 748.5973 96.0427 748.5973H352.2133C405.248 748.5973 448.256 705.5893 448.256 652.5547V396.384C448.256 343.3493 405.248 300.3413 352.2133 300.3413ZM96.0427 684.5547C78.3787 684.5547 64.0427 670.2187 64.0427 652.5547V396.384C64.0427 378.72 78.3787 364.384 96.0427 364.384H352.2133C369.8773 364.384 384.2133 378.72 384.2133 396.384V652.5547C384.2133 670.2187 369.8773 684.5547 352.2133 684.5547ZM864.5547-212H608.384C555.3493-212 512.3413-168.992 512.3413-115.9573V140.2133C512.3413 193.248 555.3493 236.256 608.384 236.256H864.5547C917.5893 236.256 960.5973 193.248 960.5973 140.2133V-115.9573C960.5973-168.992 917.5893-212 864.5547-212ZM608.384 172.256C590.72 172.256 576.384 157.92 576.384 140.256V-115.9147C576.384-133.5787 590.72-147.9147 608.384-147.9147H864.5547C882.2187-147.9147 896.5547-133.5787 896.5547-115.9147V140.256C896.5547 157.92 882.2187 172.256 864.5547 172.256ZM752.4693 268.2987C752.4267 268.2987 752.3413 268.2987 752.2987 268.2987 725.8453 268.2987 701.8667 279.0507 684.5867 296.4587L508.4587 472.5867C491.0933 489.952 480.384 513.9733 480.384 540.4693S491.136 590.9867 508.4587 608.352L684.5867 784.48C702.2507 801.248 726.144 811.5733 752.4693 811.5733S802.688 801.248 820.3947 784.4373L996.48 608.352C1013.8453 590.9867 1024.5547 566.9653 1024.5547 540.4693S1013.8027 489.952 996.48 472.5867L820.352 296.4587C803.072 279.0507 779.0933 268.2987 752.64 268.2987 752.5973 268.2987 752.512 268.2987 752.4693 268.2987ZM752.4693 748.5973C743.68 748.4693 735.7867 744.8 730.0693 738.9973L553.3013 562.8693C547.456 557.0667 543.8293 549.0027 543.8293 540.128S547.456 523.1893 553.3013 517.3867L730.0693 341.2587C735.872 335.4133 743.936 331.7867 752.8107 331.7867S769.7493 335.4133 775.552 341.2587L951.68 518.0267C957.5253 523.8293 961.152 531.8933 961.152 540.768S957.5253 557.7067 951.68 563.5093L774.912 739.6373C769.152 745.184 761.344 748.5973 752.6827 748.5973 752.5973 748.5973 752.5547 748.5973 752.4693 748.5973Z"  horiz-adv-x="1024" vert-adv-y="1024"  />

      
      <glyph glyph-name="uniE136" unicode="&#xE136;" d="M320-148C312.32-148 304.64-145.44 298.24-139.68 285.44-127.52 284.16-107.68 296.32-94.24L660.48 300 296.32 694.24C284.16 707.04 285.44 727.52 298.24 739.68S331.52 750.56 343.68 737.76L727.68 321.76C739.2 309.6 739.2 290.4 727.68 278.24L343.68-137.76C337.28-144.8 328.32-148 320-148Z"  horiz-adv-x="1024" vert-adv-y="1024"  />

      
      <glyph glyph-name="uniE13A" unicode="&#xE13A;" d="M992-20H64V652C64 669.92 49.92 684 32 684S0 669.92 0 652V-52C0-69.92 14.08-84 32-84H992C1009.92-84 1024-69.92 1024-52S1009.92-20 992-20ZM168.32 396L280.96 561.76C290.56 576.48 309.76 579.04 323.2 567.52L615.68 320.48C629.12 308.96 652.16 307.68 666.88 317.28L805.76 410.08C820.48 419.68 837.12 413.92 842.88 397.28L952.32 77.28C952.32 76 951.68 75.36 950.4 75.36H168.32Z"  horiz-adv-x="1024" vert-adv-y="1024"  />

      
      <glyph glyph-name="uniE139" unicode="&#xE139;" d="M512 812C229.76 812 0 582.24 0 300S229.76-212 512-212 1024 17.76 1024 300 794.24 812 512 812ZM512-148C264.96-148 64 52.96 64 300S264.96 748 512 748C759.04 748 960 547.04 960 300S759.04-148 512-148ZM680.32 271.84L544 148.32V524C544 541.92 529.92 556 512 556S480 541.92 480 524V148.32L344.32 271.84C331.52 283.36 311.04 282.72 298.88 269.92 286.72 256.48 288 236.64 300.8 224.48L490.24 52.32C491.52 51.04 493.44 50.4 495.36 49.12 496.64 48.48 497.92 47.2 499.84 46.56 503.68 44.64 508.16 44 512 44S520.32 44.64 524.16 46.56C526.08 47.2 527.36 48.48 528.64 49.12 530.56 50.4 532.48 51.04 533.76 52.32L723.2 224.48C736.64 236.64 737.28 256.48 725.12 269.92 713.6 282.72 693.12 284 680.32 271.84Z"  horiz-adv-x="1024" vert-adv-y="1024"  />

      
      <glyph glyph-name="uniE13C" unicode="&#xE13C;" d="M963.4133 197.6C963.0293 204.1707 960.512 210.0587 956.544 214.7093L956.5867 218.9333C953.856 221.536 950.784 223.7973 947.4133 225.632L947.2 225.76H652.8V726.6667C652.8 773.8133 614.6133 812 567.4667 812H482.1333C434.9867 812 396.8 773.8133 396.8 726.6667V234.2933H110.08C105.1733 230.624 101.1627 226.1013 98.2613 220.8533L98.1333 220.64V216.3733C93.9947 211.5947 91.4347 205.3227 91.3067 198.496 91.2213 197.4293 91.1787 196.2773 91.1787 195.04S91.2213 192.6507 91.3493 191.456L91.3493 191.6267C91.136 190.0907 91.0507 188.2987 91.0507 186.5067S91.1787 182.9227 91.392 181.1733C91.3067 180.4907 91.264 179.4667 91.264 178.4S91.3067 176.3093 91.392 175.2853C92.7147 172.8107 94.1227 170.592 95.744 168.5013L98.2187 160.9067 495.0187-200.0533C502.5707-206.88 512.5973-211.0613 523.6053-211.0613S544.64-206.88 552.2347-200.0533L951.552 160.0107 956.672 166.8373 960.9387 173.664C961.024 174.56 961.024 175.584 961.024 176.6507S960.9813 178.7413 960.896 179.7653C961.1093 181.1733 961.1947 182.9227 961.1947 184.7573S961.0667 188.3413 960.8533 190.0907L960.8533 189.8773C961.8773 192.0533 962.7307 194.6133 963.3707 197.3013Z"  horiz-adv-x="1024" vert-adv-y="1024"  />

      
      <glyph glyph-name="uniE13B" unicode="&#xE13B;" d="M833.28 240.48C821.12 253.28 801.28 254.56 787.84 242.4L544 20.32V652C544 669.92 529.92 684 512 684S480 669.92 480 652V20.32L235.52 242.4C222.72 254.56 202.24 253.28 190.08 240.48S179.2 207.2 192 195.04L489.6-75.68C490.88-76.96 492.8-77.6 494.72-78.88 496-79.52 497.28-80.8 499.2-81.44 503.68-83.36 508.16-84 512-84S520.32-83.36 524.16-81.44C526.08-80.8 527.36-79.52 528.64-78.88 530.56-77.6 532.48-76.96 533.76-75.68L831.36 195.04C844.8 207.2 845.44 227.04 833.28 240.48Z"  horiz-adv-x="1024" vert-adv-y="1024"  />

      
      <glyph glyph-name="uniE13E" unicode="&#xE13E;" d="M512 812C229.76 812 0 582.24 0 300S229.76-212 512-212 1024 17.76 1024 300 794.24 812 512 812ZM512-148C264.96-148 64 52.96 64 300S264.96 748 512 748C759.04 748 960 547.04 960 300S759.04-148 512-148ZM736 332H360.32L483.84 468.32C496 481.12 494.72 501.6 481.92 513.76 469.12 525.28 448.64 524 436.48 511.2L264.32 321.76C263.04 319.84 262.4 317.92 261.12 316.64 260.48 314.72 259.2 313.44 258.56 312.16 255.36 304.48 255.36 296.16 258.56 288.48 259.2 286.56 260.48 285.28 261.12 284 262.4 282.08 263.04 280.16 264.32 278.24L436.48 88.8C442.88 81.76 451.2 78.56 460.16 78.56 467.84 78.56 475.52 81.12 481.92 86.88 494.72 99.04 496 118.88 483.84 132.32L360.32 268H736C753.92 268 768 282.08 768 300S753.92 332 736 332Z"  horiz-adv-x="1024" vert-adv-y="1024"  />

      
      <glyph glyph-name="uniE140" unicode="&#xE140;" d="M864 332H232.32L454.4 576.48C466.56 589.28 465.28 609.76 452.48 621.92S419.2 632.8 407.04 620L136.32 321.76C135.04 319.84 134.4 317.92 133.12 316.64 132.48 314.72 131.2 313.44 130.56 312.16 127.36 304.48 127.36 296.16 130.56 288.48 131.2 286.56 132.48 285.28 133.12 284 134.4 282.08 135.04 280.16 136.32 278.24L407.04-19.36C413.44-26.4 421.76-29.6 430.72-29.6 438.4-29.6 446.08-27.04 452.48-21.28 465.28-9.12 466.56 10.72 454.4 24.16L232.32 268H864C881.92 268 896 282.08 896 300S881.92 332 864 332Z"  horiz-adv-x="1024" vert-adv-y="1024"  />

      
      <glyph glyph-name="uniE146" unicode="&#xE146;" d="M512 812C229.76 812 0 582.24 0 300S229.76-212 512-212 1024 17.76 1024 300 794.24 812 512 812ZM512-148C264.96-148 64 52.96 64 300S264.96 748 512 748C759.04 748 960 547.04 960 300S759.04-148 512-148ZM768 299.36C768 299.36 768 300 768 300S768 300.64 768 300.64C768 304.48 767.36 308.32 766.08 311.52 765.44 313.44 764.16 314.72 763.52 316 762.24 317.92 761.6 319.84 760.32 321.12L587.52 511.2C575.36 524 555.52 525.28 542.08 513.12 529.28 500.96 528 481.12 540.16 467.68L663.68 331.36H288C270.08 332 256 317.92 256 300S270.08 268 288 268H663.68L540.16 131.68C528 118.88 529.28 98.4 542.08 86.24 548.48 80.48 556.16 77.92 563.84 77.92 572.8 77.92 581.12 81.12 587.52 88.16L759.68 277.6C760.96 278.88 761.6 280.8 762.88 282.72 763.52 284 764.8 285.92 765.44 287.2 766.72 291.68 768 295.52 768 299.36Z"  horiz-adv-x="1024" vert-adv-y="1024"  />

      
      <glyph glyph-name="uniE147" unicode="&#xE147;" d="M893.44 287.84C894.72 291.68 896 295.52 896 299.36 896 299.36 896 300 896 300S896 300.64 896 300.64C896 304.48 895.36 308.32 894.08 311.52 893.44 313.44 892.16 314.72 891.52 316 890.24 317.92 889.6 319.84 888.32 321.12L616.96 619.36C604.8 632.16 584.96 633.44 571.52 621.28 558.72 609.12 557.44 589.28 569.6 575.84L791.68 331.36H160C142.08 332 128 317.92 128 300S142.08 268 160 268H791.68L569.6 23.52C557.44 10.72 558.72-9.76 571.52-21.92 577.92-27.68 585.6-30.24 593.28-30.24 602.24-30.24 610.56-27.04 616.96-20L887.68 277.6C888.96 278.88 889.6 280.8 890.88 282.72 891.52 285.28 892.8 286.56 893.44 287.84Z"  horiz-adv-x="1024" vert-adv-y="1024"  />

      
      <glyph glyph-name="uniE14A" unicode="&#xE14A;" d="M512 812C229.76 812 0 582.24 0 300S229.76-212 512-212 1024 17.76 1024 300 794.24 812 512 812ZM512-148C264.96-148 64 52.96 64 300S264.96 748 512 748C759.04 748 960 547.04 960 300S759.04-148 512-148ZM533.76 547.68C531.84 548.96 529.92 549.6 528.64 550.88 526.72 551.52 525.44 552.8 523.52 553.44 520.32 554.72 516.48 555.36 513.28 556 512.64 556 512.64 556 512 556 512 556 511.36 556 511.36 556 507.52 556 503.68 555.36 499.84 553.44 498.56 552.8 497.28 551.52 495.36 550.88 494.08 549.6 492.16 548.96 490.24 547.68L300.8 375.52C288 363.36 286.72 343.52 298.88 330.08 311.04 317.28 330.88 316 344.32 328.16L480 451.68V76C480 58.08 494.08 44 512 44S544 58.08 544 76V451.68L680.32 328.16C686.72 322.4 694.4 319.84 702.08 319.84 711.04 319.84 719.36 323.68 725.76 330.08 737.92 342.88 736.64 363.36 723.84 375.52L533.76 547.68Z"  horiz-adv-x="1024" vert-adv-y="1024"  />

      
      <glyph glyph-name="uniE14C" unicode="&#xE14C;" d="M831.36 404.96L533.76 675.68C531.84 676.96 529.92 677.6 528.64 678.88 526.72 679.52 525.44 680.8 524.16 681.44 520.32 682.72 516.48 684 512.64 684 512.64 684 512 684 512 684S511.36 684 511.36 684C507.52 684 503.68 682.72 499.84 681.44 498.56 680.8 497.28 679.52 495.36 678.88 494.08 677.6 492.16 676.96 490.24 675.68L192.64 404.96C179.84 392.8 178.56 372.96 190.72 359.52S222.72 345.44 236.16 357.6L480 579.68V-52C480-69.92 494.08-84 512-84S544-69.92 544-52V579.68L788.48 357.6C794.88 351.84 802.56 349.28 810.24 349.28 819.2 349.28 827.52 353.12 833.92 359.52 845.44 372.96 844.8 392.8 831.36 404.96Z"  horiz-adv-x="1024" vert-adv-y="1024"  />

      
      <glyph glyph-name="uniE14D" unicode="&#xE14D;" d="M877.696 812C877.696 812 877.6533 812 877.6533 812 869.0347 812 861.1413 808.9707 854.9547 803.8933L269.8667 329.2267C261.504 322.4853 256.1707 312.2027 256.1707 300.6827S261.4613 278.9227 269.7813 272.224L854.9973-202.528C860.9707-208.0747 868.864-211.616 877.568-212.0427 897.8347-212.0427 914.2187-195.6587 914.2187-175.4773V775.392C914.2187 795.5733 897.8347 811.9573 877.6533 811.9573ZM109.696 812C89.5147 812 73.1307 795.616 73.1307 775.4347V-175.4347C73.1307-195.616 89.5147-212 109.696-212S146.2613-195.616 146.2613-175.4347V775.4347C146.2613 795.616 129.8773 812 109.696 812Z"  horiz-adv-x="1024" vert-adv-y="1024"  />

      
      <glyph glyph-name="uniE14E" unicode="&#xE14E;" d="M832 747.36C824.96 747.36 817.92 745.44 812.16 740.32L300.16 324.96C284.16 312.16 284.16 287.84 300.16 275.04L812.16-140.32C818.56-145.44 825.6-147.36 832-147.36 848.64-147.36 864-134.56 864-115.36V715.36C864 733.92 848.64 747.36 832 747.36ZM800-48.16L370.56 300 800 648.16V-48.16ZM160 748C142.08 748 128 733.92 128 716V-116C128-133.92 142.08-148 160-148S192-133.92 192-116V716C192 733.92 177.92 748 160 748Z"  horiz-adv-x="1024" vert-adv-y="1024"  />

      
      <glyph glyph-name="uniE14F" unicode="&#xE14F;" d="M544 556H237.44L311.04 629.6C323.84 642.4 323.84 662.24 311.04 675.04S278.4 687.84 265.6 675.04L182.4 591.84C145.28 554.72 145.28 493.28 182.4 456.16L264.96 373.6C271.36 367.2 279.68 364 288 364S304.64 367.2 310.4 373.6C323.2 386.4 323.2 406.24 310.4 419.04L237.44 492H544C702.72 492 832 377.44 832 236S717.44-20 576-20H288C270.08-20 256-34.08 256-52S270.08-84 288-84H576C752.64-84 896 59.36 896 236S737.92 556 544 556Z"  horiz-adv-x="1024" vert-adv-y="1024"  />

      
      <glyph glyph-name="uniE150" unicode="&#xE150;" d="M992-20H64V652C64 669.92 49.92 684 32 684S0 669.92 0 652V-52C0-69.92 14.08-84 32-84H992C1009.92-84 1024-69.92 1024-52S1009.92-20 992-20ZM200.32 76H248.32C266.24 76 280.32 90.08 280.32 108V460C280.32 477.92 266.24 492 248.32 492H200.32C182.4 492 168.32 477.92 168.32 460V108C168.32 90.08 182.4 76 200.32 76ZM424.32 76H472.32C490.24 76 504.32 90.08 504.32 108V652C504.32 669.92 490.24 684 472.32 684H424.32C406.4 684 392.32 669.92 392.32 652V108C392.32 90.08 406.4 76 424.32 76ZM648.32 76H696.32C714.24 76 728.32 90.08 728.32 108V332C728.32 349.92 714.24 364 696.32 364H648.32C630.4 364 616.32 349.92 616.32 332V108C616.32 90.08 630.4 76 648.32 76ZM872.32 76H920.32C938.24 76 952.32 90.08 952.32 108V204C952.32 221.92 938.24 236 920.32 236H872.32C854.4 236 840.32 221.92 840.32 204V108C840.32 90.08 854.4 76 872.32 76Z"  horiz-adv-x="1024" vert-adv-y="1024"  />

      
      <glyph glyph-name="uniE151" unicode="&#xE151;" d="M384 522.72C487.5093 503.7333 567.8933 423.3493 586.624 321.376L592 284C593.664 200.3733 624.5973 124.2987 674.944 65.2907 707.6693 27.4453 755.968 2.9973 810.0267 1.76 812.928 1.632 816.0853 1.5467 819.2427 1.5467 869.0773 1.5467 914.7307 19.5093 950.0587 49.3333 997.4613 91.7013 1027.3707 153.44 1027.3707 222.1333 1027.3707 236.0853 1026.1333 249.696 1023.7867 262.9653 1008 378.592 927.488 473.3973 820.0533 509.8773 814.208 569.8667 786.56 622.0907 744.576 658.1013 707.2427 692.5333 657.536 713.5253 602.9653 713.5253 587.52 713.5253 572.4587 711.8613 557.952 708.6613 506.9653 695.52 462.9333 665.824 431.744 625.5893 426.4107 619.4453 423.3813 612.0213 423.3813 603.9147 423.3813 594.2293 427.6907 585.5253 434.5173 579.6373L438.4 579.5947C422.1867 583.648 403.4987 586.208 384.2987 586.6347 378.1973 587.0187 371.3707 587.2747 364.5013 587.2747S350.8053 587.0613 344.064 586.592L345.0027 597.5147C347.136 623.328 362.1973 645.216 383.6587 656.8213 392.832 662.8373 398.592 672.6933 398.592 683.9147 398.592 701.664 384.2133 716.0427 366.464 716.0427 359.936 716.0427 353.8347 714.08 348.7573 710.7093 327.4667 697.056 310.5707 677.8987 299.9467 655.2853 284.672 661.728 267.0933 665.9947 248.5333 665.9947 239.872 665.9947 231.424 665.056 223.2747 663.3067 209.2373 660.1067 198.3147 647.0507 198.3147 631.4347 198.3147 613.344 212.992 598.6667 231.0827 598.6667 233.5573 598.6667 235.9893 598.9653 238.336 599.4773 240.4693 599.776 243.1573 599.9893 245.888 599.9893 263.936 599.9893 280.064 591.584 290.5173 578.4427L290.6027 578.3147C168.3627 550.1547 93.4827 438.7947 50.6027 341.5147 17.3227 266.6347-30.0373 125.8347 26.2827 24.7147 55.8933-36.3413 115.2427-78.8373 185.0027-84.0427L889.6427-84.0853C907.3067-84.0853 921.6427-69.7493 921.6427-52.0853S907.3067-20.0853 889.6427-20.0853H185.6427C138.7947-15.1787 99.84 14.3893 81.664 55.264 37.1627 135.4347 85.1627 264.0747 108.2027 315.9147 174.1227 463.1147 265.0027 533.5147 384.0427 522.6347ZM480 582.88C502.8267 613.856 535.296 636.512 572.8853 646.624 582.9547 648.8 593.152 649.8667 603.6053 649.8667 641.4933 649.8667 676.0533 635.616 702.208 612.192 733.9947 583.392 753.9627 541.792 753.9627 495.4987 753.9627 494.2613 753.9627 493.024 753.92 491.7867L753.92 459.3173 778.88 455.4773C874.1547 432.1813 946.1333 353.9733 959.872 257.0773 961.792 246.5813 962.816 235.9573 962.816 225.0773 962.816 172.5547 939.2213 125.5787 902.0587 94.0907 880.5547 77.536 853.5467 67.7227 824.2347 67.7227 820.0107 67.7227 815.7867 67.936 811.648 68.32 812.16 68.2773 812.16 68.2773 812.16 68.2773 776.576 68.2773 744.6187 83.808 722.688 108.4693 683.3067 157.2373 659.2853 219.6587 658.6027 287.6267L652.8427 330.0373C629.888 441.7813 552.5333 531.424 450.2613 571.1893 449.152 571.8293 450.4747 571.744 451.7973 571.744 462.0373 571.744 471.2107 576.2667 477.3973 583.4347Z"  horiz-adv-x="1024" vert-adv-y="1024"  />

      
      <glyph glyph-name="uniE152" unicode="&#xE152;" d="M375.68-212H102.4C45.8667-212 0-166.1333 0-109.6V-109.6 163.68C0 220.2133 45.8667 266.08 102.4 266.08V266.08H375.68C432.2133 266.08 478.08 220.2133 478.08 163.68V163.68-109.6C478.08-166.1333 432.2133-212 375.68-212V-212ZM375.68 333.92H102.4C45.8667 333.92 0 379.7867 0 436.32V436.32 709.6C0 766.1333 45.8667 812 102.4 812V812H375.68C432.2133 812 478.08 766.1333 478.08 709.6V709.6 436.32C478.08 379.7867 432.2133 333.92 375.68 333.92V333.92ZM921.6-212H648.32C591.7867-212 545.92-166.1333 545.92-109.6V-109.6 163.68C545.92 220.2133 591.7867 266.08 648.32 266.08V266.08H921.6C978.1333 266.08 1024 220.2133 1024 163.68V163.68-109.6C1024-166.1333 978.1333-212 921.6-212V-212ZM921.6 333.92H648.32C591.7867 333.92 545.92 379.7867 545.92 436.32V436.32 709.6C545.92 766.1333 591.7867 812 648.32 812H921.6C978.1333 812 1024 766.1333 1024 709.6V709.6 436.32C1024 379.7867 978.1333 333.92 921.6 333.92V333.92Z"  horiz-adv-x="1024" vert-adv-y="1024"  />

      
      <glyph glyph-name="uniE155" unicode="&#xE155;" d="M238.08 780H270.08C287.744 780 302.08 765.664 302.08 748V620C302.08 602.336 287.744 588 270.08 588H238.08C220.416 588 206.08 602.336 206.08 620V748C206.08 765.664 220.416 780 238.08 780ZM752 780H784C801.664 780 816 765.664 816 748V620C816 602.336 801.664 588 784 588H752C734.336 588 720 602.336 720 620V748C720 765.664 734.336 780 752 780ZM992 444H32C14.336 444 0 429.664 0 412V-100C0-153.0347 42.9653-196 96-196H928C981.0347-196 1024-153.0347 1024-100V412C1024 429.664 1009.664 444 992 444ZM800-4H224C206.336-4 192 10.336 192 28S206.336 60 224 60H800C817.664 60 832 45.664 832 28S817.664-4 800-4ZM800 188H352C334.336 188 320 202.336 320 220S334.336 252 352 252H800C817.664 252 832 237.664 832 220S817.664 188 800 188ZM928 700H848V620C848 584.672 819.328 556 784 556H752C716.672 556 688 584.672 688 620V700H334.08V620C334.08 584.672 305.408 556 270.08 556H238.08C202.752 556 174.08 584.672 174.08 620V700H96C42.9653 700 0 657.0347 0 604V540C0 522.336 14.336 508 32 508H992C1009.664 508 1024 522.336 1024 540V604C1024 657.0347 981.0347 700 928 700Z"  horiz-adv-x="1024" vert-adv-y="1024"  />

      
      <glyph glyph-name="uniE154" unicode="&#xE154;" d="M928 700H816V748C816 765.664 801.664 780 784 780H752C734.336 780 720 765.664 720 748V700H302.08V748C302.08 765.664 287.744 780 270.08 780H238.08C220.416 780 206.08 765.664 206.08 748V700H96C42.9653 700 0 657.0347 0 604V-100C0-153.0347 42.9653-196 96-196H928C981.0347-196 1024-153.0347 1024-100V604C1024 657.0347 981.0347 700 928 700ZM64 604C64 621.664 78.336 636 96 636H206.08V620C206.08 602.336 220.416 588 238.08 588H270.08C287.744 588 302.08 602.336 302.08 620V636H720V620C720 602.336 734.336 588 752 588H784C801.664 588 816 602.336 816 620V636H928C945.664 636 960 621.664 960 604V508H64ZM928-132H96C78.336-132 64-117.664 64-100V444H960V-100C960-117.664 945.664-132 928-132ZM800 252H352C334.336 252 320 237.664 320 220S334.336 188 352 188H800C817.664 188 832 202.336 832 220S817.664 252 800 252ZM800 60H224C206.336 60 192 45.664 192 28S206.336-4 224-4H800C817.664-4 832 10.336 832 28S817.664 60 800 60Z"  horiz-adv-x="1024" vert-adv-y="1024"  />

      
      <glyph glyph-name="uniE156" unicode="&#xE156;" d="M991.9573 71.0933L756.864 306.1867C738.176 325.1733 712.704 337.4187 684.3733 338.912 683.904 338.912 683.6907 338.912 683.4773 338.912 655.1893 338.912 629.5893 327.2213 611.3707 308.3627L586.5813 283.5733 493.44 372.3627 519.6373 398.56C539.3493 418.3147 551.552 445.5787 551.552 475.7013S539.3493 533.088 519.6373 552.8427L290.3893 779.9147C270.6347 799.6267 243.3707 811.8293 213.248 811.8293S155.8613 799.6267 136.1067 779.9147L32.0427 675.8507C12.3307 656.096 0.128 628.832 0.128 598.7093S12.3307 541.3227 32.0427 521.568L261.2907 292.32C281.0453 272.608 308.3093 260.4053 338.432 260.4053S395.8187 272.608 415.5733 292.32L439.5947 318.5173 528.384 231.904 503.6373 207.1573C484.9067 188.5547 473.2587 162.8693 473.088 134.4107 474.5813 105.7813 486.8267 80.2667 505.8133 61.6213L740.9067-173.472C760.7893-193.5253 788.3093-206.0267 818.7307-206.24 847.232-205.984 872.9173-194.336 891.5627-175.6907L992.7253-74.528C1010.048-55.4987 1020.672-30.0693 1020.672-2.1653 1020.672 26.1227 1009.7493 51.8507 991.9147 71.0933ZM366.8053 344.032C360.1493 337.5467 351.0187 333.5787 340.9493 333.5787S321.792 337.5893 315.0933 344.0747L83.6693 573.3227C77.0133 579.936 72.9173 589.0667 72.9173 599.1787S77.0133 618.4213 83.6693 624.992L187.7333 728.3307C194.3467 734.9867 203.4773 739.0827 213.5893 739.0827S232.832 734.9867 239.4027 728.3307L467.9253 499.0827C474.5813 492.4693 478.6773 483.3387 478.6773 473.2267S474.5813 453.984 467.9253 447.4133L439.552 421.9413 405.3333 456.16C398.72 462.7733 389.5893 466.8693 379.4773 466.8693 359.296 466.8693 342.9547 450.528 342.9547 430.3467 342.9547 420.2773 347.0507 411.104 353.664 404.4907L390.0587 372.448ZM945.408-30.0693L844.2453-131.232C837.8453-137.4187 829.0987-141.216 819.4987-141.216S801.152-137.4187 794.752-131.232L557.4827 106.7627C550.8267 113.504 546.688 122.72 546.56 132.96 546.7733 141.1947 550.0587 148.576 555.3067 154.1227L580.0533 178.8693 617.8987 141.024C624.512 134.4107 633.6427 130.3147 643.7547 130.3147 663.936 130.3147 680.2773 146.656 680.2773 166.8373 680.2773 176.9067 676.1813 186.08 669.568 192.6933L631.7227 230.5387 657.92 256.736C663.552 262.1547 671.1893 265.4827 679.6373 265.4827 679.936 265.4827 680.2347 265.4827 680.5333 265.4827L680.4907 265.4827C690.7307 265.3547 699.9467 261.216 706.688 254.56L941.7387 19.5093C948.1387 13.0667 952.1067 4.192 952.1067-5.6213 952.1067-15.0507 948.4373-23.6267 942.464-30.0267Z"  horiz-adv-x="1024" vert-adv-y="1024"  />

      
      <glyph glyph-name="uniE153" unicode="&#xE153;" d="M416-52C407.2107-51.872 399.3173-48.2027 393.6-42.4L9.6 341.6C3.7973 347.4027 0.1707 355.4667 0.1707 364.2987 0.1707 382.048 14.5493 396.4267 32.2987 396.4267 41.1733 396.4267 49.1947 392.8427 54.9973 386.9973L415.3173 26.6773 968.9173 641.7173C974.6773 647.392 982.6133 650.8907 991.3173 650.8907 1008.9813 650.8907 1023.3173 636.5547 1023.3173 618.8907 1023.3173 611.296 1020.672 604.2987 1016.2347 598.7947L440.2773-41.1627C434.6027-47.6053 426.4107-51.744 417.28-52.0427Z"  horiz-adv-x="1024" vert-adv-y="1024"  />

      
      <glyph glyph-name="uniE157" unicode="&#xE157;" d="M512 812C229.248 812 0 582.752 0 300S229.248-212 512-212C794.752-212 1024 17.248 1024 300S794.752 812 512 812ZM822.4 437.6L438.4 53.6C432.5973 47.7547 424.576 44.128 415.7013 44.128S398.7627 47.7547 393.0027 53.6L201.0027 245.6C195.2 251.4027 191.5733 259.4667 191.5733 268.3413 191.5733 286.0907 205.952 300.4693 223.7013 300.4693 232.576 300.4693 240.5973 296.8853 246.4427 291.04L416.0427 121.44 777.6427 483.04C783.4453 488.8427 791.5093 492.4693 800.384 492.4693 818.1333 492.4693 832.512 478.0907 832.512 460.3413 832.512 451.4667 828.928 443.4453 823.0827 437.6Z"  horiz-adv-x="1024" vert-adv-y="1024"  />

      
      <glyph glyph-name="uniE158" unicode="&#xE158;" d="M512-212C229.76-212 0 17.76 0 300S229.76 812 512 812 1024 582.24 1024 300 794.24-212 512-212ZM512 748C264.96 748 64 547.04 64 300S264.96-148 512-148C759.04-148 960 52.96 960 300S759.04 748 512 748ZM438.4 53.6L822.4 437.6C835.2 450.4 835.2 470.24 822.4 483.04S789.76 495.84 776.96 483.04L416 121.44 246.4 290.4C233.6 303.2 213.76 303.2 200.96 290.4S188.16 257.76 200.96 244.96L392.96 52.96C399.36 47.2 407.68 44 416 44S432.64 47.2 438.4 53.6Z"  horiz-adv-x="1024" vert-adv-y="1024"  />

      
      <glyph glyph-name="uniE15A" unicode="&#xE15A;" d="M512 812C494.08 812 480 797.92 480 780S494.08 748 512 748C759.04 748 960 547.04 960 300S759.04-148 512-148C494.08-148 480-162.08 480-180S494.08-212 512-212C794.24-212 1024 17.76 1024 300S794.24 812 512 812Z"  horiz-adv-x="1024" vert-adv-y="1024"  />

      
      <glyph glyph-name="uniE15B" unicode="&#xE15B;" d="M512 812C494.08 812 480 797.92 480 780S494.08 748 512 748C759.04 748 960 547.04 960 300 960 282.08 974.08 268 992 268S1024 282.08 1024 300C1024 582.24 794.24 812 512 812Z"  horiz-adv-x="1024" vert-adv-y="1024"  />

      
      <glyph glyph-name="uniE15C" unicode="&#xE15C;" d="M1024 300C1024 17.248 794.752-212 512-212S0 17.248 0 300C0 582.752 229.248 812 512 812S1024 582.752 1024 300Z"  horiz-adv-x="1024" vert-adv-y="1024"  />

      
      <glyph glyph-name="uniE159" unicode="&#xE159;" d="M512-212C229.76-212 0 17.76 0 300S229.76 812 512 812 1024 582.24 1024 300 794.24-212 512-212ZM512 748C264.96 748 64 547.04 64 300S264.96-148 512-148C759.04-148 960 52.96 960 300S759.04 748 512 748Z"  horiz-adv-x="1024" vert-adv-y="1024"  />

      
      <glyph glyph-name="uniE15D" unicode="&#xE15D;" d="M1024 236C1024.0853 236.8533 1024.1707 237.8773 1024.1707 238.8587S1024.128 240.864 1024 241.8453L1024 246.8373 852.48 459.9573 848 463.7973H576C540.672 463.7973 512 435.1253 512 399.7973V-141.6427C512-180.512 543.5307-212.0427 582.4-212.0427H954.24C992.768-212.0427 1024-180.8107 1024-142.2827V235.9573ZM640 534.88C675.328 534.88 704 563.552 704 598.88V716C704 769.0347 661.0347 812 608 812H96C42.9653 812 0 769.0347 0 716V12C0-41.0347 42.9653-84 96-84H384C419.328-84 448-55.328 448-20V455.52C448 455.52 448 455.52 448 455.52 448 499.1253 483.1573 534.496 526.6773 534.88ZM480 620H224C206.336 620 192 634.336 192 652S206.336 684 224 684H480C497.664 684 512 669.664 512 652S497.664 620 480 620Z"  horiz-adv-x="1024" vert-adv-y="1024"  />

      
      <glyph glyph-name="uniE15E" unicode="&#xE15E;" d="M1024 293.6C1023.744 298.4213 1022.08 302.816 1019.4773 306.4853L1019.52 309.6 832 543.84 826.88 548.32H704V720.48C704 720.6507 704 720.9067 704 721.12 704 771.0827 663.68 811.616 613.8027 812H90.24C40.32 811.6587 0 771.0827 0 721.12 0 720.9067 0 720.6507 0 720.4373V7.52C0 7.3493 0 7.0933 0 6.88 0-43.0827 40.32-83.616 90.1973-84H448V-133.92C448.3413-177.1413 483.456-212 526.72-212 526.72-212 526.72-212 526.72-212H945.92C989.1413-211.6587 1024-176.544 1024-133.28 1024-133.28 1024-133.28 1024-133.28V289.12C1024.0427 289.8027 1024.0853 290.5707 1024.0853 291.3387S1024.0427 292.9173 1024 293.6853ZM443.52-20H90.24C75.648-19.6587 64-7.7547 64 6.88 64 7.0933 64 7.3493 64 7.5627L64 720.48C64 720.6933 64 720.9067 64 721.12 64 735.7547 75.6907 747.6587 90.1973 748L613.76 748C628.352 747.6587 640 735.7547 640 721.12 640 720.9067 640 720.6507 640 720.4373L640 556H526.72C483.2427 556 448 520.7573 448 477.28V-20ZM945.92-148H526.72C518.5707-148 512-141.4293 512-133.28V477.28C512 485.4293 518.5707 492 526.72 492H790.4L960 278.24V-133.28C960-141.4293 953.4293-148 945.28-148ZM512 652C512 669.664 497.664 684 480 684H224C206.336 684 192 669.664 192 652S206.336 620 224 620H480C497.664 620 512 634.336 512 652Z"  horiz-adv-x="1024" vert-adv-y="1024"  />

      
      <glyph glyph-name="uniE162" unicode="&#xE162;" d="M512 812C229.248 812 0 582.752 0 300S229.248-212 512-212C794.752-212 1024 17.248 1024 300S794.752 812 512 812ZM761.6 56.8C755.712 48.992 746.4533 44 736 44 728.7467 44 722.0907 46.3893 716.7147 50.4427L460.8 242.4C452.992 248.288 448 257.5467 448 268V588C448 605.664 462.336 620 480 620S512 605.664 512 588V284L755.2 101.6C763.008 95.712 768 86.4533 768 76 768 68.7467 765.6107 62.0907 761.5573 56.7147Z"  horiz-adv-x="1024" vert-adv-y="1024"  />

      
      <glyph glyph-name="uniE15F" unicode="&#xE15F;" d="M716.8 50.4L460.8 242.4C452.48 248.16 448 257.76 448 268V588C448 605.92 462.08 620 480 620S512 605.92 512 588V284L755.2 101.6C769.28 90.72 772.48 70.88 761.6 56.8 755.2 48.48 745.6 44 736 44 729.6 44 722.56 45.92 716.8 50.4ZM960 300C960 547.04 759.04 748 512 748S64 547.04 64 300 264.96-148 512-148 960 52.96 960 300ZM1024 300C1024 17.76 794.24-212 512-212S0 17.76 0 300 229.76 812 512 812 1024 582.24 1024 300Z"  horiz-adv-x="1024" vert-adv-y="1024"  />

      
      <glyph glyph-name="uniE160" unicode="&#xE160;" d="M512 812C229.248 812 0 582.752 0 300S229.248-212 512-212C794.752-212 1024 17.248 1024 300S794.752 812 512 812ZM758.4 98.4C764.2027 92.5973 767.8293 84.5333 767.8293 75.7013 767.8293 57.952 753.4507 43.5733 735.7013 43.5733 726.8267 43.5733 718.8053 47.1573 712.96 53.0027L512 254.6027 310.4 53.6427C304.5973 47.84 296.5333 44.2133 287.6587 44.2133 269.9093 44.2133 255.5307 58.592 255.5307 76.3413 255.5307 85.216 259.1147 93.2373 264.96 99.04L466.56 300 265.6 501.6C259.7973 507.4027 256.1707 515.4667 256.1707 524.3413 256.1707 542.0907 270.5493 556.4693 288.2987 556.4693 297.1733 556.4693 305.1947 552.8853 311.04 547.04L512 345.44 713.6 547.04C719.4027 552.8427 727.4667 556.4693 736.3413 556.4693 754.0907 556.4693 768.4693 542.0907 768.4693 524.3413 768.4693 515.4667 764.8853 507.4453 759.04 501.6L557.44 300Z"  horiz-adv-x="1024" vert-adv-y="1024"  />

      
      <glyph glyph-name="uniE163" unicode="&#xE163;" d="M512-212C229.76-212 0 17.76 0 300S229.76 812 512 812 1024 582.24 1024 300 794.24-212 512-212ZM512 748C264.96 748 64 547.04 64 300S264.96-148 512-148C759.04-148 960 52.96 960 300S759.04 748 512 748ZM736 44C727.68 44 719.36 47.2 713.6 53.6L512 254.56 310.4 52.96C297.6 40.16 277.76 40.16 264.96 52.96S252.16 85.6 264.96 98.4L466.56 300 265.6 501.6C252.8 514.4 252.8 534.24 265.6 547.04S298.24 559.84 311.04 547.04L512 345.44 713.6 547.04C726.4 559.84 746.24 559.84 759.04 547.04S771.84 514.4 759.04 501.6L557.44 300 759.04 98.4C771.84 85.6 771.84 65.76 759.04 52.96 752.64 47.2 744.32 44 736 44Z"  horiz-adv-x="1024" vert-adv-y="1024"  />

      
      <glyph glyph-name="uniE161" unicode="&#xE161;" d="M992-212C983.68-212 975.36-208.8 969.6-202.4L512 254.56 54.4-203.04C41.6-215.84 21.76-215.84 8.96-203.04S-3.84-170.4 8.96-157.6L466.56 300 9.6 757.6C-3.2 770.4-3.2 790.24 9.6 803.04S42.24 815.84 55.04 803.04L512 345.44 969.6 803.04C982.4 815.84 1002.24 815.84 1015.04 803.04S1027.84 770.4 1015.04 757.6L557.44 300 1015.04-157.6C1027.84-170.4 1027.84-190.24 1015.04-203.04 1008.64-208.8 1000.32-212 992-212Z"  horiz-adv-x="1024" vert-adv-y="1024"  />

      
      <glyph glyph-name="uniE167" unicode="&#xE167;" d="M987.4347 665.696H36.5653C16.384 665.696 0 649.312 0 629.1307S16.384 592.5653 36.5653 592.5653H146.2613V-175.4347C146.2613-195.616 162.6453-212 182.8267-212H841.1307C861.312-212 877.696-195.616 877.696-175.4347V592.5653H987.392C1007.5733 592.5653 1023.9573 608.9493 1023.9573 629.1307S1007.5733 665.696 987.392 665.696ZM438.8693 373.1307V-138.8693H365.7387V446.2613C365.7387 466.4427 382.1227 482.8267 402.304 482.8267S438.8693 466.4427 438.8693 446.2613ZM658.304 373.1307V-138.8693H585.1733V446.2613C585.1733 466.4427 601.5573 482.8267 621.7387 482.8267S658.304 466.4427 658.304 446.2613ZM365.696 738.8693H658.2613C678.4427 738.8693 694.8267 755.2533 694.8267 775.4347S678.4427 812 658.2613 812H365.696C345.5147 812 329.1307 795.616 329.1307 775.4347S345.5147 738.8693 365.696 738.8693Z"  horiz-adv-x="1024" vert-adv-y="1024"  />

      
      <glyph glyph-name="uniE166" unicode="&#xE166;" d="M1011.2 322.4L787.2 546.4C774.4 559.2 754.56 559.2 741.76 546.4S728.96 513.76 741.76 500.96L943.36 300 741.76 98.4C728.96 85.6 728.96 65.76 741.76 52.96 748.16 46.56 756.48 43.36 764.16 43.36S780.8 46.56 786.56 52.96L1010.56 276.96C1023.36 289.76 1023.36 310.24 1011.2 322.4ZM282.24 546.4C269.44 559.2 249.6 559.2 236.8 546.4L12.8 322.4C0 309.6 0 289.76 12.8 276.96L236.8 52.96C243.2 47.2 251.52 44 259.84 44S276.48 47.2 282.24 53.6C295.04 66.4 295.04 86.24 282.24 99.04L80.64 300 282.24 501.6C294.4 513.76 294.4 534.24 282.24 546.4ZM616.32 682.72C599.68 687.84 581.76 677.6 577.28 660.32L385.28-43.68C380.8-60.96 390.4-78.24 407.68-82.72 410.24-83.36 413.44-84 416-84 430.08-84 442.88-74.4 446.72-60.32L638.72 643.68C643.2 660.32 633.6 678.24 616.32 682.72Z"  horiz-adv-x="1024" vert-adv-y="1024"  />

      
      <glyph glyph-name="uniE164" unicode="&#xE164;" d="M964.3093 395.2747L893.184 409.2693C883.968 441.7387 872.064 469.984 857.216 496.352L893.184 552.8C904.7893 564.32 911.9573 580.2773 911.9573 597.8987S904.7893 631.4773 893.184 642.9973L848.7253 684.9387C837.248 696.2453 821.504 703.2427 804.096 703.2427 789.8027 703.2427 776.576 698.5067 765.952 690.528L702.592 650.6347C679.1253 663.9893 651.9893 675.68 623.4453 684.2133L607.3173 748.4693C607.3173 783.5413 578.8587 812 543.7867 812H480.256C480.1707 812 480.0427 812 479.9573 812 447.104 812 420.096 787.0827 416.768 755.0827L403.4133 684.9387C372.096 675.7227 344.9173 664.032 319.5307 649.6107L265.5573 684.9387C254.0373 696.544 238.08 703.712 220.4587 703.712S186.88 696.544 175.36 684.9387L130.9013 642.9973C119.3387 631.648 112.0853 615.9893 111.8293 598.5813 111.7867 597.6 111.744 596.5333 111.744 595.424 111.744 581.0027 117.0773 567.8613 125.8667 557.792L165.8453 494.3467C151.936 469.7707 140.032 441.2693 131.584 411.36L67.3707 395.232C32.2987 395.232 3.84 366.7733 3.84 331.7013V268.1707C3.84 268.0853 3.84 267.9573 3.84 267.872 3.84 235.0187 28.7573 208.0107 60.7573 204.6827L130.9013 190.048C140.6293 158.048 152.9173 130.2293 168.1067 104.3307L130.9013 49.632C119.296 38.112 112.128 22.1547 112.128 4.5333S119.296-29.0453 130.9013-40.5653L176-85.024C187.4347-96.2027 203.0933-103.072 220.3307-103.072 234.496-103.072 247.552-98.464 258.0907-90.6133L321.4507-46.2827C343.168-58.1867 368.4267-68.8107 394.88-76.704L412.288-148.5547C412.288-183.6267 440.7467-212.0853 475.8187-212.0853H539.3493C539.4347-212.0853 539.5627-212.0853 539.648-212.0853 572.5013-212.0853 599.5093-187.168 602.8373-155.168L621.9093-77.3867C651.136-68.768 676.4373-58.1867 700.2027-45.216L758.4853-86.9013C769.9627-98.336 785.792-105.376 803.2853-105.376S836.608-98.336 848.0853-86.9013L893.184-42.4427C904.832-30.9227 912.0853-14.9227 912.0853 2.7413 912.0853 18.784 906.112 33.4613 896.2987 44.64L855.7227 108.0853C870.272 131.7653 882.944 159.1147 892.416 187.872L961.792 204.64C996.864 204.64 1025.3227 233.0987 1025.3227 268.1707V331.7013C1025.3227 331.7013 1025.3227 331.744 1025.3227 331.744 1025.3227 365.92 998.3147 393.824 964.48 395.232ZM512 144.992C424.2773 144.992 353.1947 216.0747 353.1947 303.7973S424.2773 462.6027 512 462.6027C599.7227 462.6027 670.8053 391.52 670.8053 303.7973S599.7227 144.992 512 144.992Z"  horiz-adv-x="1024" vert-adv-y="1024"  />

      
      </font>
</defs>
</svg>
