<?xml version="1.0" encoding="UTF-8" standalone="no"?>
<!DOCTYPE svg PUBLIC "-//W3C//DTD SVG 1.1//EN"
 "http://www.w3.org/Graphics/SVG/1.1/DTD/svg11.dtd">
<!-- Generated by graphviz version 2.40.1 (20161225.0304)
 -->
<!-- Title: %3 Pages: 1 -->
<svg width="312pt" height="319pt"
 viewBox="0.00 0.00 312.00 319.00" xmlns="http://www.w3.org/2000/svg" xmlns:xlink="http://www.w3.org/1999/xlink">
<g id="graph0" class="graph" transform="scale(1 1) rotate(0) translate(4 315)">
<title>%3</title>
<polygon fill="#ffffff" stroke="transparent" points="-4,4 -4,-315 308,-315 308,4 -4,4"/>
<!-- Service -->
<g id="node1" class="node">
<title>Service</title>
<polygon fill="none" stroke="#000000" points="186,-278.5 186,-306.5 296,-306.5 296,-278.5 186,-278.5"/>
<text text-anchor="start" x="208.5" y="-289.7" font-family="Helvetica,sans-Serif" font-weight="bold" font-size="16.00" fill="#000000">Service</text>
<polygon fill="none" stroke="#000000" points="186,-253.5 186,-278.5 296,-278.5 296,-253.5 186,-253.5"/>
<text text-anchor="start" x="260" y="-263.3" font-family="Helvetica,sans-Serif" text-decoration="underline" font-size="14.00" fill="#000000">uuid</text>
<polygon fill="none" stroke="#000000" points="186,-228.5 186,-253.5 296,-253.5 296,-228.5 186,-228.5"/>
<text text-anchor="start" x="236" y="-237.3" font-family="Helvetica,sans-Serif" font-size="14.00" fill="#000000">created</text>
<polygon fill="none" stroke="#000000" points="186,-203.5 186,-228.5 296,-228.5 296,-203.5 186,-203.5"/>
<text text-anchor="start" x="231" y="-212.3" font-family="Helvetica,sans-Serif" font-size="14.00" fill="#000000">updated</text>
<polygon fill="none" stroke="#000000" points="186,-178.5 186,-203.5 296,-203.5 296,-178.5 186,-178.5"/>
<text text-anchor="start" x="249" y="-187.3" font-family="Helvetica,sans-Serif" font-size="14.00" fill="#000000">name</text>
<polygon fill="none" stroke="#000000" points="186,-153.5 186,-178.5 296,-178.5 296,-153.5 186,-153.5"/>
<text text-anchor="start" x="227" y="-162.3" font-family="Helvetica,sans-Serif" font-size="14.00" fill="#000000">category</text>
<polygon fill="none" stroke="#000000" points="186,-128.5 186,-153.5 296,-153.5 296,-128.5 186,-128.5"/>
<text text-anchor="start" x="191" y="-137.3" font-family="Helvetica,sans-Serif" font-size="14.00" fill="#000000">display_name</text>
<polygon fill="none" stroke="#000000" points="186,-103.5 186,-128.5 296,-128.5 296,-103.5 186,-103.5"/>
<text text-anchor="start" x="260" y="-112.3" font-family="Helvetica,sans-Serif" font-size="14.00" fill="#000000">logo</text>
<polygon fill="none" stroke="#000000" points="186,-78.5 186,-103.5 296,-103.5 296,-78.5 186,-78.5"/>
<text text-anchor="start" x="212" y="-87.3" font-family="Helvetica,sans-Serif" font-size="14.00" fill="#000000">description</text>
<polygon fill="none" stroke="#000000" points="186,-53.5 186,-78.5 296,-78.5 296,-53.5 186,-53.5"/>
<text text-anchor="start" x="247" y="-62.3" font-family="Helvetica,sans-Serif" font-size="14.00" fill="#000000">config</text>
<polygon fill="none" stroke="#000000" points="186,-28.5 186,-53.5 296,-53.5 296,-28.5 186,-28.5"/>
<text text-anchor="start" x="229" y="-37.3" font-family="Helvetica,sans-Serif" font-size="14.00" fill="#000000">is_active</text>
<polygon fill="none" stroke="#000000" points="186,-3.5 186,-28.5 296,-28.5 296,-3.5 186,-3.5"/>
<text text-anchor="start" x="227" y="-12.3" font-family="Helvetica,sans-Serif" font-size="14.00" fill="#000000">is_visible</text>
</g>
<!-- Plan -->
<g id="node2" class="node">
<title>Plan</title>
<polygon fill="none" stroke="#000000" points="8.5,-253.5 8.5,-281.5 97.5,-281.5 97.5,-253.5 8.5,-253.5"/>
<text text-anchor="start" x="33.5" y="-264.7" font-family="Helvetica,sans-Serif" font-weight="bold" font-size="16.00" fill="#000000">Plan</text>
<polygon fill="none" stroke="#000000" points="8.5,-228.5 8.5,-253.5 97.5,-253.5 97.5,-228.5 8.5,-228.5"/>
<text text-anchor="start" x="61.5" y="-238.3" font-family="Helvetica,sans-Serif" text-decoration="underline" font-size="14.00" fill="#000000">uuid</text>
<polygon fill="none" stroke="#000000" points="8.5,-203.5 8.5,-228.5 97.5,-228.5 97.5,-203.5 8.5,-203.5"/>
<text text-anchor="start" x="37.5" y="-212.3" font-family="Helvetica,sans-Serif" font-size="14.00" fill="#000000">created</text>
<polygon fill="none" stroke="#000000" points="8.5,-178.5 8.5,-203.5 97.5,-203.5 97.5,-178.5 8.5,-178.5"/>
<text text-anchor="start" x="32.5" y="-187.3" font-family="Helvetica,sans-Serif" font-size="14.00" fill="#000000">updated</text>
<polygon fill="none" stroke="#000000" points="8.5,-153.5 8.5,-178.5 97.5,-178.5 97.5,-153.5 8.5,-153.5"/>
<text text-anchor="start" x="50.5" y="-162.3" font-family="Helvetica,sans-Serif" font-size="14.00" fill="#000000">name</text>
<polygon fill="none" stroke="#000000" points="8.5,-128.5 8.5,-153.5 97.5,-153.5 97.5,-128.5 8.5,-128.5"/>
<text text-anchor="start" x="18.5" y="-137.3" font-family="Helvetica,sans-Serif" font-size="14.00" fill="#000000">properties</text>
<polygon fill="none" stroke="#000000" points="8.5,-103.5 8.5,-128.5 97.5,-128.5 97.5,-103.5 8.5,-103.5"/>
<text text-anchor="start" x="13.5" y="-112.3" font-family="Helvetica,sans-Serif" font-size="14.00" fill="#000000">description</text>
<polygon fill="none" stroke="#000000" points="8.5,-78.5 8.5,-103.5 97.5,-103.5 97.5,-78.5 8.5,-78.5"/>
<text text-anchor="start" x="48.5" y="-87.3" font-family="Helvetica,sans-Serif" font-size="14.00" fill="#000000">config</text>
<polygon fill="none" stroke="#000000" points="8.5,-53.5 8.5,-78.5 97.5,-78.5 97.5,-53.5 8.5,-53.5"/>
<text text-anchor="start" x="30.5" y="-62.3" font-family="Helvetica,sans-Serif" font-size="14.00" fill="#000000">is_active</text>
<polygon fill="none" stroke="#000000" points="8.5,-28.5 8.5,-53.5 97.5,-53.5 97.5,-28.5 8.5,-28.5"/>
<text text-anchor="start" x="20.5" y="-38.3" font-family="Helvetica,sans-Serif" font-style="italic" font-size="14.00" fill="#000000">service_id</text>
</g>
<!-- Plan&#45;&#45;Service -->
<g id="edge1" class="edge">
<title>Plan&#45;&#45;Service</title>
<path fill="none" stroke="#7f7f7f" stroke-dasharray="5,2" d="M105.0078,-155.5C127.5577,-155.5 154.1026,-155.5 177.7263,-155.5"/>
<text text-anchor="start" x="167.7263" y="-144.3" font-family="Times,serif" font-size="14.00" fill="#000000">1</text>
<text text-anchor="start" x="105.0078" y="-144.3" font-family="Times,serif" font-size="14.00" fill="#000000">0..N</text>
</g>
</g>
</svg>
